<svg width="190" height="93" viewBox="0 0 190 93" fill="none" xmlns="http://www.w3.org/2000/svg">
<path d="M43.4904 46.3176L59.5587 71.2058H105.884C105.884 71.2058 168.337 71.2058 190 24.0498C190 24.0498 157.183 46.3176 104.929 46.3176C52.675 46.3176 43.4904 46.3176 43.4904 46.3176Z" fill="#C5007B"/>
<path d="M32.6479 71.2209L19.9444 49.0696L11.8464 58.3971V71.2209H0.0451508V0H11.8464V43.3927L32.9487 17.7037H47.453L27.5462 40.5655L47.453 71.2209H32.6479Z" fill="#C5007B"/>
<path d="M5.02652 89.0599L2.97756 85.4282L1.89857 86.6613V89.0599H0V77.5143H1.90233V84.2251L4.75583 80.7551H7.09427L4.20693 84.0447L7.41383 89.0562H5.02652V89.0599Z" fill="#C5007B"/>
<path d="M13.0419 85.6237H10.9779C10.7636 85.6237 10.5869 85.7064 10.4553 85.8681C10.32 86.0297 10.2523 86.2403 10.2523 86.4997C10.2523 86.7816 10.3801 87.0335 10.6395 87.2629C10.9177 87.5223 11.2561 87.6538 11.6546 87.6538C12.5344 87.6538 13.3727 87.3944 14.1698 86.8756L15.072 88.3005C14.3953 88.6464 13.8464 88.8795 13.4291 88.996C12.9667 89.1276 12.4178 89.1915 11.7862 89.1915C10.8313 89.1915 10.023 88.9584 9.36882 88.496C8.68082 87.9997 8.3387 87.3606 8.3387 86.5824C8.3387 85.7703 8.63946 85.1575 9.24099 84.7327C8.77857 84.2251 8.54923 83.7289 8.54923 83.2401C8.54923 82.4093 8.86504 81.7664 9.5004 81.3115C10.0794 80.913 10.8275 80.71 11.7411 80.71C12.5381 80.71 13.2675 80.9431 13.9329 81.4055C14.7299 81.9694 15.1247 82.7138 15.1247 83.6424C15.1247 84.3003 14.9329 84.7966 14.5532 85.1274C14.166 85.4583 13.6622 85.6237 13.0419 85.6237ZM11.7336 82.2514C11.305 82.2514 10.9854 82.3529 10.7749 82.5597C10.5644 82.7664 10.4591 82.9995 10.4591 83.2552C10.4591 83.4394 10.5343 83.6123 10.6847 83.774C10.8689 83.9808 11.1132 84.0823 11.4253 84.0823H12.7299C13.0532 84.0823 13.2148 83.9093 13.2148 83.5635C13.2148 83.1086 13.0381 82.7627 12.681 82.5258C12.4065 82.3416 12.0907 82.2514 11.7336 82.2514Z" fill="#C5007B"/>
<path d="M21.3917 85.6237H19.3278C19.1135 85.6237 18.9368 85.7064 18.8052 85.8681C18.6698 86.0297 18.6022 86.2403 18.6022 86.4997C18.6022 86.7816 18.73 87.0335 18.9894 87.2629C19.2676 87.5223 19.606 87.6538 20.0045 87.6538C20.8842 87.6538 21.7226 87.3944 22.5196 86.8756L23.4219 88.3005C22.7452 88.6464 22.1963 88.8795 21.779 88.996C21.3166 89.1276 20.7677 89.1915 20.1361 89.1915C19.1811 89.1915 18.3728 88.9584 17.7187 88.496C17.0307 87.9997 16.6886 87.3606 16.6886 86.5824C16.6886 85.7703 16.9893 85.1575 17.5908 84.7327C17.1284 84.2251 16.8991 83.7289 16.8991 83.2401C16.8991 82.4093 17.2149 81.7664 17.8503 81.3115C18.4292 80.913 19.1774 80.71 20.0909 80.71C20.888 80.71 21.6173 80.9431 22.2828 81.4055C23.0798 81.9694 23.4745 82.7138 23.4745 83.6424C23.4745 84.3003 23.2828 84.7966 22.9031 85.1274C22.5159 85.4583 22.0121 85.6237 21.3917 85.6237ZM20.0834 82.2514C19.6548 82.2514 19.3353 82.3529 19.1247 82.5597C18.9142 82.7664 18.8089 82.9995 18.8089 83.2552C18.8089 83.4394 18.8841 83.6123 19.0345 83.774C19.2187 83.9808 19.4631 84.0823 19.7751 84.0823H21.0797C21.403 84.0823 21.5647 83.9093 21.5647 83.5635C21.5647 83.1086 21.388 82.7627 21.0308 82.5258C20.7564 82.3416 20.4406 82.2514 20.0834 82.2514Z" fill="#C5007B"/>
<path d="M28.6139 89.2404C28.1966 89.2404 27.7492 89.1013 27.2755 88.8193V92.3871H25.3582V82.0935C25.7116 81.7927 26.1702 81.5032 26.7304 81.2325C27.3958 80.9092 27.971 80.7476 28.456 80.7476C29.7681 80.7476 30.7305 81.1912 31.3434 82.0784C31.8471 82.804 32.1028 83.7815 32.1028 85.0146C32.1028 86.2139 31.7907 87.2102 31.1667 87.996C30.5163 88.8231 29.6666 89.2404 28.6139 89.2404ZM28.5951 82.3002C28.0913 82.3002 27.6477 82.4393 27.2718 82.7213V87.214C27.6703 87.5373 28.0613 87.699 28.4485 87.699C29.5538 87.699 30.1102 86.8004 30.1102 85.0071C30.114 83.2025 29.6064 82.3002 28.5951 82.3002Z" fill="#C5007B"/>
<path d="M38.4 85.6237H36.3361C36.1218 85.6237 35.9451 85.7064 35.8135 85.8681C35.6781 86.0297 35.6105 86.2403 35.6105 86.4997C35.6105 86.7816 35.7383 87.0335 35.9977 87.2629C36.2759 87.5223 36.6143 87.6538 37.0128 87.6538C37.8925 87.6538 38.7309 87.3944 39.5279 86.8756L40.4302 88.3005C39.7535 88.6464 39.2046 88.8795 38.7873 88.996C38.3249 89.1276 37.776 89.1915 37.1444 89.1915C36.1894 89.1915 35.3811 88.9584 34.727 88.496C34.039 87.9997 33.6969 87.3606 33.6969 86.5824C33.6969 85.7703 33.9976 85.1575 34.5991 84.7327C34.1367 84.2251 33.9074 83.7289 33.9074 83.2401C33.9074 82.4093 34.2232 81.7664 34.8586 81.3115C35.4375 80.913 36.1857 80.71 37.0992 80.71C37.8963 80.71 38.6256 80.9431 39.2911 81.4055C40.0881 81.9694 40.4828 82.7138 40.4828 83.6424C40.4828 84.3003 40.2911 84.7966 39.9114 85.1274C39.5242 85.4583 39.0204 85.6237 38.4 85.6237ZM37.0917 82.2514C36.6631 82.2514 36.3436 82.3529 36.133 82.5597C35.9225 82.7664 35.8172 82.9995 35.8172 83.2552C35.8172 83.4394 35.8924 83.6123 36.0428 83.774C36.227 83.9808 36.4714 84.0823 36.7834 84.0823H38.088C38.4113 84.0823 38.573 83.9093 38.573 83.5635C38.573 83.1086 38.3963 82.7627 38.0391 82.5258C37.7647 82.3416 37.4489 82.2514 37.0917 82.2514Z" fill="#C5007B"/>
<path d="M47.1861 82.7364C46.6259 82.413 46.1259 82.2514 45.686 82.2514C45.1259 82.2514 44.6559 82.3905 44.2687 82.6724V89.1088H42.3513V82.1048C42.6521 81.8792 43.1371 81.5747 43.8025 81.1949C44.5431 80.8603 45.3439 80.6912 46.2049 80.6912C46.9041 80.6912 47.5282 80.8641 48.0734 81.21L47.1861 82.7364Z" fill="#C5007B"/>
<path d="M51.7314 89.1915C50.4945 89.1915 49.3779 88.8494 48.3779 88.1689L49.2163 86.744C50.0434 87.3493 50.9268 87.6538 51.8592 87.6538C52.2765 87.6538 52.6186 87.5561 52.8743 87.3606C53.1337 87.1651 53.2615 86.9283 53.2615 86.6463C53.2615 86.0523 52.972 85.7177 52.3893 85.6425L50.987 85.447C50.3216 85.3492 49.7689 85.1124 49.3253 84.7327C48.8403 84.3116 48.5997 83.7853 48.5997 83.1612C48.5997 82.4055 48.908 81.8002 49.517 81.3453C50.0847 80.9243 50.8178 80.7137 51.7088 80.7137C52.7502 80.7137 53.8104 81.022 54.8857 81.6386L54.0134 83.0183C53.1224 82.5108 52.3517 82.2551 51.7088 82.2551C50.9043 82.2551 50.4983 82.5634 50.4983 83.18C50.4983 83.5597 50.8216 83.8229 51.4645 83.9732C51.8931 84.0184 52.3254 84.0672 52.754 84.1199C53.442 84.2063 54.0059 84.4545 54.4458 84.8643C54.9308 85.3304 55.1714 85.9094 55.1714 86.6012C55.1714 87.4132 54.8105 88.0561 54.0924 88.5298C53.4457 88.9697 52.6562 89.1915 51.7314 89.1915Z" fill="#C5007B"/>
<path d="M59.1302 89.0599C58.5174 89.0599 58.0173 88.8795 57.6301 88.5185C57.2429 88.1576 57.0511 87.6501 57.0511 87.0034V81.9281C56.5248 81.5483 56.2616 80.9656 56.2616 80.1761V78.3264H58.164V79.9956C58.164 80.1686 58.2429 80.3378 58.4046 80.5069C58.5662 80.6761 58.7279 80.7588 58.8896 80.7588H60.1941V82.3002H58.9685V86.8418C58.9685 87.0147 59.0362 87.1726 59.1715 87.3117C59.3069 87.4508 59.4535 87.5223 59.6151 87.5223H60.1941V89.0637H59.1302V89.0599Z" fill="#C5007B"/>
<path d="M67.465 88.12C66.8184 88.8343 65.9762 89.1915 64.9349 89.1915C63.8935 89.1915 63.0476 88.8343 62.4047 88.12C62.0701 87.7516 61.837 87.3456 61.7016 86.8944C61.5663 86.447 61.4986 85.7929 61.4986 84.9395C61.4986 84.0973 61.5701 83.4432 61.7092 82.977C61.837 82.5446 62.0701 82.1461 62.4009 81.7777C63.0476 81.0634 63.8897 80.7062 64.9311 80.7062C65.9725 80.7062 66.8184 81.0634 67.4613 81.7777C67.7959 82.1461 68.0252 82.5446 68.153 82.977C68.2921 83.4432 68.3636 84.0973 68.3636 84.9395C68.3636 85.7929 68.2959 86.4433 68.1605 86.8944C68.0327 87.3456 67.7959 87.7516 67.465 88.12ZM64.9349 82.2514C63.9235 82.2514 63.4197 83.1499 63.4197 84.9432C63.4197 86.7478 63.9235 87.6501 64.9349 87.6501C65.9462 87.6501 66.4499 86.7515 66.4499 84.9582C66.4499 83.1537 65.9424 82.2514 64.9349 82.2514Z" fill="#C5007B"/>
<path d="M75.0744 82.7364C74.5143 82.413 74.0143 82.2514 73.5744 82.2514C73.0142 82.2514 72.5443 82.3905 72.157 82.6724V89.1088H70.2397V82.1048C70.5404 81.8792 71.0254 81.5747 71.6908 81.1949C72.4315 80.8603 73.2323 80.6912 74.0932 80.6912C74.7925 80.6912 75.4166 80.8641 75.9617 81.21L75.0744 82.7364Z" fill="#C5007B"/>
<path d="M81.2477 85.6237H79.1837C78.9694 85.6237 78.7927 85.7064 78.6612 85.8681C78.5258 86.0297 78.4581 86.2403 78.4581 86.4997C78.4581 86.7816 78.586 87.0335 78.8454 87.2629C79.1236 87.5223 79.4619 87.6538 79.8605 87.6538C80.7402 87.6538 81.5786 87.3944 82.3756 86.8756L83.2779 88.3005C82.6012 88.6464 82.0523 88.8795 81.635 88.996C81.1725 89.1276 80.6236 89.1915 79.992 89.1915C79.0371 89.1915 78.2288 88.9584 77.5747 88.496C76.8867 87.9997 76.5445 87.3606 76.5445 86.5824C76.5445 85.7703 76.8453 85.1575 77.4468 84.7327C76.9844 84.2251 76.7551 83.7289 76.7551 83.2401C76.7551 82.4093 77.0709 81.7664 77.7062 81.3115C78.2852 80.913 79.0334 80.71 79.9469 80.71C80.7439 80.71 81.4733 80.9431 82.1387 81.4055C82.9358 81.9694 83.3305 82.7138 83.3305 83.6424C83.3305 84.3003 83.1388 84.7966 82.7591 85.1274C82.3756 85.4583 81.8718 85.6237 81.2477 85.6237ZM79.9432 82.2514C79.5146 82.2514 79.195 82.3529 78.9845 82.5597C78.7739 82.7664 78.6687 82.9995 78.6687 83.2552C78.6687 83.4394 78.7439 83.6123 78.8943 83.774C79.0785 83.9808 79.3228 84.0823 79.6349 84.0823H80.9394C81.2628 84.0823 81.4244 83.9093 81.4244 83.5635C81.4244 83.1086 81.2477 82.7627 80.8906 82.5258C80.6124 82.3416 80.2966 82.2514 79.9432 82.2514Z" fill="#C5007B"/>
<path d="M103.188 17.8127C75.4314 17.8127 67.8221 17.8127 60.0549 17.8127L42.4151 37.0729H105.121C105.121 37.0729 149.968 37.2947 166.638 0.150375C166.638 0.150375 141.599 17.8127 103.188 17.8127Z" fill="#C5007B"/>
</svg>
