<?xml version="1.0" encoding="utf-8"?>
<!-- Generator: Adobe Illustrator 19.0.0, SVG Export Plug-In . SVG Version: 6.00 Build 0)  -->
<svg version="1.1" xmlns="http://www.w3.org/2000/svg" xmlns:xlink="http://www.w3.org/1999/xlink" x="0px" y="0px"
	 viewBox="0 0 343.9 363.5" style="enable-background:new 0 0 343.9 363.5;" xml:space="preserve">
<style type="text/css">
	.st0{display:none;}
	.st1{display:inline;}
	.st2{display:inline;fill:none;stroke:#5D5D5D;stroke-width:0.9408;stroke-miterlimit:10;}
	.st3{fill:none;stroke:#FF2300;stroke-width:0.2991;stroke-miterlimit:10;}
	.st4{fill:none;stroke:#1371A4;stroke-width:0.25;stroke-miterlimit:10;}
	.st5{display:inline;fill:none;stroke:#FF2300;stroke-width:0.25;stroke-miterlimit:10;}
	.st6{display:inline;fill:none;stroke:#5D5D5D;stroke-width:0.8828;stroke-miterlimit:10;}
	.st7{fill:#44443A;}
	.st8{fill:none;stroke:#44443A;stroke-width:14;stroke-linecap:round;stroke-miterlimit:10;}
	.st9{display:inline;fill:#5D5D5D;}
	.st10{fill:#080A09;}
	.st11{display:inline;fill:#FFFFFF;}
	.st12{clip-path:url(#XMLID_96_);}
	.st13{stroke:#000000;stroke-width:2;stroke-miterlimit:10;}
	.st14{display:inline;stroke:#000000;stroke-width:1.7953;stroke-miterlimit:10;}
	.st15{stroke:#000000;stroke-width:1.7953;stroke-miterlimit:10;}
	
		.st16{display:inline;fill:none;stroke:#000000;stroke-width:24;stroke-linecap:square;stroke-linejoin:bevel;stroke-miterlimit:10;}
	.st17{display:inline;fill:none;stroke:#000000;stroke-width:24;stroke-miterlimit:10;}
	.st18{fill:none;stroke:#000000;stroke-width:24;stroke-miterlimit:10;}
	.st19{fill:none;stroke:#000000;stroke-width:24.6077;stroke-miterlimit:10;}
	.st20{fill:#303030;}
	.st21{fill:none;stroke:#44443A;stroke-width:2.524;stroke-linecap:round;stroke-miterlimit:10;}
	.st22{clip-path:url(#XMLID_103_);}
	.st23{fill:#FFFFFF;}
	.st24{display:inline;fill:#303030;}
	.st25{clip-path:url(#XMLID_104_);}
	.st26{fill:none;stroke:#FFFFFF;stroke-miterlimit:10;}
	.st27{fill:#1A1A1A;}
</style>
<g id="sketch" class="st0">
	<g id="XMLID_36_" class="st1">
		<defs>
			<rect id="XMLID_37_" x="-1079.7" y="-1110.5" width="152.7" height="154.1"/>
		</defs>
		<clipPath id="XMLID_95_">
			<use xlink:href="#XMLID_37_"  style="overflow:visible;"/>
		</clipPath>
		<g style="clip-path:url(#XMLID_95_);">
			
				<image style="overflow:visible;" width="960" height="1280" id="XMLID_38_" xlink:href="A6324F9B.jpg"  transform="matrix(0.1918 0 0 0.1918 -1087.0243 -1162.4753)">
			</image>
		</g>
	</g>
</g>
<g id="refs" class="st0">
	
		<image style="display:inline;overflow:visible;" width="300" height="300" id="XMLID_6_" xlink:href="A6324F99.jpg"  transform="matrix(1.2333 0 0 1.2333 -1843 -929.1884)">
	</image>
	
		<image style="display:inline;overflow:visible;" width="895" height="504" id="XMLID_7_" xlink:href="A6324F9F.jpg"  transform="matrix(0.4134 0 0 0.4134 -1843 -560.4934)">
	</image>
	
		<image style="display:inline;overflow:visible;" width="1120" height="600" id="XMLID_5_" xlink:href="A6324F98.jpg"  transform="matrix(0.3304 0 0 0.3304 -1843 -352.1359)">
	</image>
</g>
<g id="logo" class="st0">
	<circle id="XMLID_4_" class="st2" cx="-1283.8" cy="-660.8" r="115.3"/>
	<line id="XMLID_12_" class="st2" x1="-1313.7" y1="-772.1" x2="-1253.8" y2="-549.4"/>
	<g id="XMLID_19_" class="st1">
		<line id="XMLID_20_" class="st3" x1="-1350" y1="-791.7" x2="-1278.4" y2="-525.4"/>
		<line id="XMLID_21_" class="st3" x1="-1353.9" y1="-793.5" x2="-1282.4" y2="-527.2"/>
		<line id="XMLID_23_" class="st4" x1="-1388.3" y1="-785" x2="-1316.7" y2="-518.7"/>
		<line id="XMLID_24_" class="st4" x1="-1333" y1="-797.8" x2="-1261.5" y2="-531.5"/>
		<line id="XMLID_32_" class="st4" x1="-1284.8" y1="-812.9" x2="-1213.2" y2="-546.5"/>
		<line id="XMLID_35_" class="st4" x1="-1240" y1="-830.8" x2="-1168.5" y2="-564.5"/>
		<g id="XMLID_27_">
			<line id="XMLID_31_" class="st3" x1="-1306.4" y1="-794.7" x2="-1234.8" y2="-528.4"/>
			<line id="XMLID_30_" class="st3" x1="-1261.5" y1="-805.3" x2="-1189.9" y2="-539"/>
			<line id="XMLID_29_" class="st3" x1="-1310.5" y1="-797.9" x2="-1239" y2="-531.6"/>
			<line id="XMLID_28_" class="st3" x1="-1252.1" y1="-797.8" x2="-1180.6" y2="-531.5"/>
		</g>
	</g>
	<line id="XMLID_8_" class="st2" x1="-1394.9" y1="-629.9" x2="-1172.3" y2="-689.7"/>
	<line id="XMLID_17_" class="st5" x1="-1486.2" y1="-598.7" x2="-1071.5" y2="-710.1"/>
	<line id="XMLID_18_" class="st2" x1="-1389.9" y1="-615.9" x2="-1169.4" y2="-675.1"/>
	<circle id="XMLID_482_" class="st2" cx="-76" cy="-381.3" r="115.3"/>
	<circle id="XMLID_480_" class="st6" cx="-76.3" cy="-381.5" r="108.1"/>
	<g id="XMLID_62_" class="st1">
		<path id="XMLID_58_" class="st7" d="M-1554-748.5l14,2.9l10.5-10.5l-8-7.9c0,0,11-11,10.5-22c0,0,26.5,3.8,27,2.1s-7-25.1-13-33.6
			s-36-23-51.5-22l-22,27.8c0,0-53.5-41.8-137-21.8s-14.5,92-6.5,101s30.5,29.7,30.5,29.7s-21,3.7-39.5,20.7
			c-18.5,17-42.5,34.4-42.5,34.4l-4.5-3.1l-11.5,19.1c0,0,28.5,19.3,47.5,22.9c19,3.6,22,0,22,0l-1.5-5.8c0,0-17-6.2-22-15.6
			c-5-9.4-6-10.9,1.5-15.4c7.5-4.5,22-13.2,22-13.2s37.5-12.5,52-19.9c14.5-7.4,17.5-15.9,17-24.2c-0.5-8.2-14-27.7-14-27.7
			s9-0.1,15,7.2s0,16.3,0,16.3s-1,8.4-5,15.4s-22,52.5-22,52.5l-4.5,5.7l-4,21.3c0,0,31.5,7.5,53.5,5.5s15.5-2.1,15.5-2.1v-5.8
			c0,0-31-8.7-35.5-16.1c-4.5-7.4-2-7.9,1.5-13.9S-1614-718-1614-725s-4-15.5-22-28.8c0,0,29-5.7,39-14.7l19.5,10.7l6.5-3.7l6,3.7
			h5.5L-1554-748.5z"/>
		<path id="XMLID_57_" class="st7" d="M-1753.3-819.5l-3.7-1.3c-10-3.4-20.5,3.5-21.3,14v0c-0.6,7.1,3.6,13.7,10.2,16.4l9.5,3.7
			L-1753.3-819.5z"/>
		<line id="XMLID_61_" class="st8" x1="-1816" y1="-614.5" x2="-1596" y2="-607.9"/>
		<circle id="XMLID_59_" class="st7" cx="-1796.3" cy="-589.5" r="10.3"/>
		<circle id="XMLID_64_" class="st7" cx="-1615.3" cy="-589.5" r="10.3"/>
	</g>
	<line id="XMLID_585_" class="st9" x1="-649.2" y1="-873" x2="-508.2" y2="-873"/>
	<line id="XMLID_175_" class="st5" x1="-1493.7" y1="-688.4" x2="-1079" y2="-799.8"/>
</g>
<g id="Слой_4" class="st0">
	<g id="XMLID_347_" class="st1">
		
			<image style="overflow:visible;" width="744" height="796" id="XMLID_349_" xlink:href="A6324F9B.png"  transform="matrix(0.24 0 0 0.24 -835.2667 -911.6152)">
		</image>
	</g>
	<g id="XMLID_279_" class="st1">
		<g id="XMLID_281_">
			<g id="XMLID_286_">
				<g id="XMLID_333_">
					<path id="XMLID_335_" class="st10" d="M-698.6-880.8l1,0.8l1.3-0.4l-0.3-1c0,0,1.4-0.4,1.8-1.4c0,0,2,1.4,2.2,1.3
						s0.5-2.4,0.4-3.4c-0.1-1-2-3.4-3.3-4l-3,1.4c0,0-2.7-5.8-10.5-7.7s-5.1,7-4.8,8.1c0.3,1.1,1.3,3.8,1.3,3.8s-1.9-0.6-4.2,0
						c-2.3,0.6-5,1-5,1l-0.2-0.4l-1.8,1.1c0,0,1.5,2.8,3,3.9c1.4,1.1,1.8,0.9,1.8,0.9l0.1-0.5c0,0-1.1-1.2-1.2-2.2s0-1.2,0.8-1.2
						c0.8-0.1,2.4-0.2,2.4-0.2s3.7,0.6,5.2,0.6c1.5,0,2.1-0.6,2.4-1.3c0.3-0.7,0-2.9,0-2.9s0.8,0.4,0.9,1.2c0.2,0.9-0.7,1.4-0.7,1.4
						s-0.4,0.7-1.1,1.1c-0.6,0.4-4.1,3.4-4.1,3.4l-0.6,0.3l-1.2,1.6c0,0,2.3,2,4.2,2.7c1.9,0.8,1.4,0.5,1.4,0.5l0.2-0.5
						c0,0-2.2-2-2.3-2.9c-0.1-0.8,0.2-0.7,0.7-1.1c0.5-0.3,6.8-4.2,7.1-4.8c0.3-0.6,0.3-1.5-0.6-3.3c0,0,2.7,0.8,3.9,0.4l1.2,1.7
						l0.7,0l0.3,0.6l0.5,0.2L-698.6-880.8z"/>
					<path id="XMLID_334_" class="st10" d="M-712.1-895.2l-0.3-0.3c-0.7-0.7-1.9-0.6-2.4,0.3l0,0c-0.4,0.6-0.3,1.3,0.1,1.8l0.6,0.7
						L-712.1-895.2z"/>
				</g>
				<path id="XMLID_332_" class="st10" d="M-730.9-881.2c10.9,2,22.1,11.7,22.1,11.7"/>
				<circle id="XMLID_331_" class="st10" cx="-727.1" cy="-878.2" r="1"/>
				<circle id="XMLID_330_" class="st10" cx="-712.3" cy="-870" r="1"/>
			</g>
			<g id="XMLID_282_">
				<path id="XMLID_285_" class="st10" d="M-733.3-889.3l-2.6-0.1c-0.3,0-2-8.7-2-9l-5,8.9c-0.1,0.1-0.1,0.2-0.2,0.2l-4.6,2.8
					c-0.2,0.1-0.5,0.1-0.7,0l-3-2.4c-0.2-0.2-0.5-0.2-0.7,0l-3.7,2.9c-0.3,0.2-0.7,0.1-0.9-0.2l-3.2-6c-4.6-15-1.1-0.4-1.1,0.2
					l-0.6,6.1c0,0.2-0.2,0.4-0.4,0.5l-3.8,1.7c-0.2,0.1-0.5,0-0.7-0.1l-5.7-6.3c-0.4-0.4-1.1-0.1-1,0.4l0.5,7.5
					c0,0.2-0.1,0.5-0.3,0.6l-7.1,3.8c-0.2,0.1-0.5,0.1-0.7-0.1l-6.4-6.2c-0.4-0.4-1.1,0-1,0.5l1.7,9.2c0.1,0.3-0.2,0.7-0.5,0.7
					l-2.9,0.3c-0.2,0-0.4,0.1-0.5,0.3l-2.1,4c-0.2,0.4-0.7,0.4-1,0.1l-4.2-4.7c-0.4-0.5-1.2,0-1,0.6l2.9,10.1c0,0.1,0,0.3,0,0.4
					l-2.8,5.4c-0.2,0.3-0.5,0.4-0.8,0.2l-7.9-4.6c-0.5-0.3-1.1,0.3-0.8,0.8l4.8,9.3c0.3,0.5-0.3,1.1-0.8,0.8l-0.6-0.3
					c-0.6-0.3-1.1,0.4-0.8,0.9l0.7,0.9c0.3,0.5-0.1,1.1-0.7,0.9l-4.1-1.5c-0.7-0.2-1.1,0.7-0.5,1.1l5.4,3.4c0.2,0.2,0.3,0.5,0.2,0.7
					l-2.1,5.1c-0.1,0.2-0.3,0.4-0.6,0.4l-2-0.1c-0.7,0-0.9,0.9-0.2,1.2l5.1,1.8c0.3,0.1,0.7-0.1,0.8-0.4c7.3-31.9,38.9-52,70.9-45.1
					c0.7,0.2,1.5,0.3,2.2,0.5c0.4,0.1,0.8-0.2,0.7-0.7c-0.1-0.7-0.2-1.4-0.3-2.1c0-0.1-0.1-0.2-0.1-0.3c-1.1-1.5-2.1-3.1-2.7-4.8
					C-732.8-889.2-733-889.3-733.3-889.3z"/>
				<path id="XMLID_284_" class="st10" d="M-779.6-881.3l-2,1.7c-0.2,0.2-0.5,0.2-0.7,0l-5.7-4.3c-0.5-0.3-1.1,0.1-0.9,0.6l2.1,8.2
					c0,0.1,0,0.2,0,0.3l-1.6,5.1c-0.1,0.2-0.3,0.4-0.5,0.4l-3.8,0.2c-0.3,0-0.5,0.2-0.6,0.5l-0.8,4.6c-0.1,0.4-0.4,0.6-0.8,0.5
					l-6.4-2.3c-0.6-0.2-1,0.4-0.7,0.9l3.6,4.9c0.1,0.2,0.2,0.4,0.1,0.6l-1.7,3.8c-0.1,0.2-0.4,0.4-0.6,0.3l-8.5-0.9
					c-0.6-0.1-0.9,0.6-0.5,1l5.4,5.3c0.2,0.2,0.2,0.4,0.1,0.6l-2.7,7.6c-0.1,0.2-0.3,0.4-0.6,0.4l-7.5-3c-0.6,0,5.6,9.4,5.6,9.4
					c0.3,0.2,0.3,0.6,0.1,0.9l-2,2.1c-0.1,0.1-0.2,0.4-0.1,0.6l1.1,4.3c0.1,0.4-0.2,0.8-0.6,0.7l-4.9-3.4c-0.6-0.1,7.2,9.4,7.2,9.4
					c0.1,0.1,0.2,0.2,0.3,0.4l1.5,5.9c0.1,0.3-0.1,0.7-0.5,0.7c0,0,4.6,12.3,4.7,12.6l5.6,6.1c0.3-0.1,0.5-0.5,0.3-0.8
					c-15.8-28.6-5.7-64.7,22.8-80.9c0.7-0.4,1.3-0.7,2-1.1c0.4-0.2,0.4-0.7,0.1-1c-0.5-0.4-1.1-0.9-1.6-1.3
					c-0.1-0.1-0.2-0.1-0.3-0.1c-1.9-0.4-3.6-0.9-5.3-1.8C-779.2-881.5-779.4-881.5-779.6-881.3z"/>
				<path id="XMLID_283_" class="st10" d="M-804.8-819.4c-0.2-3.4-0.1-6.9,0.2-10.4c0.1-0.7-0.9-0.9-1.1-0.3l-0.3,0.9
					c-0.1,0.2-0.2,0.3-0.4,0.4l-2.2,0.6c-0.5,0.1-0.6,0.9-0.1,1.1l0,0c0.5,0.2,0.4,0.9-0.1,1.1l-2.7,0.8c-0.6,0.2-0.5,1.1,0.2,1.2
					l2.3,0.1c0.4,0,0.7,0.5,0.5,0.9l-1.7,3.2c-0.2,0.4,0.1,0.9,0.6,0.9L-804.8-819.4z"/>
			</g>
		</g>
	</g>
	
		<image style="display:inline;overflow:visible;" width="619" height="809" id="XMLID_1_" xlink:href="A6324F97.jpg"  transform="matrix(1 0 0 1 -8759.1152 -8700.1104)">
	</image>
	<rect id="XMLID_161_" x="-1038.7" y="-1308" style="display:inline;fill:none;" width="265.5" height="92"/>
	<text id="XMLID_212_" transform="matrix(1 0 0 1 -1038.6759 -1298.8845)" class="st1"><tspan x="0" y="0" style="font-family:'Roboto-Medium'; font-size:12px;">LONGBORD  </tspan><tspan x="0" y="14.4" style="font-family:'Roboto-Medium'; font-size:12px;">DOWNHILL  </tspan><tspan x="0" y="28.8" style="font-family:'Roboto-Medium'; font-size:12px;">FESTIVAL</tspan></text>
	
		<image style="display:inline;overflow:visible;" width="1027" height="1280" id="XMLID_375_" xlink:href="A6324FA7.jpg"  transform="matrix(0.7499 0 0 0.7499 -763.9805 -1976.5663)">
	</image>
	<g id="XMLID_370_" class="st1">
		<g id="XMLID_481_">
			
				<image style="overflow:visible;" width="811" height="866" id="XMLID_686_" xlink:href="A6324FA9.png"  transform="matrix(0.24 0 0 0.24 -761.4718 -1813.4202)">
			</image>
		</g>
	</g>
	<line id="XMLID_553_" class="st11" x1="-573.6" y1="-920.1" x2="-573.6" y2="-815.8"/>
	<line id="XMLID_554_" class="st11" x1="-581.7" y1="-920.1" x2="-581.7" y2="-815.8"/>
	<g id="XMLID_524_" class="st1">
		<g id="XMLID_599_">
			<defs>
				<circle id="XMLID_661_" cx="-982.1" cy="64.5" r="108.1"/>
			</defs>
			<clipPath id="XMLID_96_">
				<use xlink:href="#XMLID_661_"  style="overflow:visible;"/>
			</clipPath>
			<g id="XMLID_662_" class="st12">
				<g id="XMLID_706_">
					<path id="XMLID_707_" class="st13" d="M-1025.4-63.3l-7.8,54.7l31.5-45.4l19,7.4l-40.8,103l-15.6-6.1l23.8-59.6l-30.6,50.1
						l-11.8-4.6l12-57.3l-23.8,59.6l-15.6-6.1l40.8-103L-1025.4-63.3z"/>
				</g>
				<g id="XMLID_669_">
					<path id="XMLID_704_" d="M-130.9-4.2l-4.6,18.5l16.4-9.7l9.4,7l-20.1,27l-7.8-5.8l11-14.8l-13.7,8.7l-5.8-4.4l4.5-15.6
						l-11,14.8l-7.8-5.8l20.1-27L-130.9-4.2z"/>
					<path id="XMLID_701_" d="M-77.1,26.9c-14.3,19.1-31,28.5-39.6,22.1c-8.6-6.4-4.4-25,9.9-44.2C-92.5-14.3-76-23.3-67.5-16.9
						C-58.9-10.5-62.9,7.9-77.1,26.9z M-97.7,11.8c-6.6,8.8-8.8,17.4-5.7,19.6c3.1,2.3,10.4-2.4,17-11.2s8.8-17,5.8-19.3
						C-83.7-1.4-91.1,2.9-97.7,11.8z"/>
					<path id="XMLID_698_" d="M-64.6,66.3c-6,8-16.6,9.2-25.2,2.8c-8.6-6.4-10.4-16.9-4.5-24.9c6-8,16.5-9.1,25.1-2.7
						C-60.6,47.9-58.6,58.3-64.6,66.3z M-85.1,51.1c-2.8,3.7-2.1,8.4,1,10.7c3.1,2.3,7.6,1.4,10.3-2.3c2.8-3.7,2.3-8.2-0.8-10.5
						C-77.7,46.7-82.3,47.4-85.1,51.1z"/>
					<path id="XMLID_696_" d="M-48.4,57.4l0.3,21.8l10.3-13.9l8.1,6l-20.1,27l-7.5-5.6l-0.3-21.7l-10.3,13.8l-8.1-6.1l20.1-27
						L-48.4,57.4z"/>
					<path id="XMLID_694_" class="st13" d="M-886-5.3l1.5,64.6l24-53.9l14.4,5.2l-40.6,99.7l-13.2-4.7l-2.1-54.9l-19,46.5l-16.1-6.4
						l40.6-99.7L-886-5.3z"/>
					<path id="XMLID_691_" d="M-157.7,60.3l2-9.4l-3.3-2.5l-5.2,7l-8.9-6.7l20.1-27l13,9.7c7.3,5.5,8.9,12.1,4.3,18.2
						c-2.9,3.9-6.6,5.7-10.6,5.4l-1.2,12.7L-157.7,60.3z M-154,41.6l4.1,3.1c1.9,1.4,3.9,1.1,5.5-1c1.5-2,1.2-4-0.7-5.4l-4.1-3.1
						L-154,41.6z"/>
					<path id="XMLID_688_" d="M-128,76.5l-10.1-7.5l-4.2,2.8l-9.2-6.8l31.5-18.5l9.2,6.8l-9.2,35.2l-9.5-7.1L-128,76.5z
						 M-125.4,68.5l3.1-10l-8.7,5.8L-125.4,68.5z"/>
					<path id="XMLID_684_" d="M-94.9,76.3c-3.2-2.4-7.5-1.6-10.2,2c-2.7,3.6-2.3,8,0.9,10.4c1.9,1.4,5.2,2.1,8.4,1.5l1.1,9.3
						c-5.4,1-11.6-0.3-15.8-3.4c-8.3-6.2-9.9-16.5-3.9-24.6c5.9-7.9,16.4-9.1,24.8-2.8c4.1,3.1,7.2,8.4,7.7,13.4l-9.7,2.3
						C-91.4,81.1-92.8,77.9-94.9,76.3z"/>
					<path id="XMLID_682_" d="M-57.5,93.1l-5.1,6.8l-13.9-10.4l-2.5,3.3l12.6,9.4l-5.1,6.8l-12.6-9.4l-2.5,3.3l14.2,10.6l-5.1,6.8
						l-23.2-17.3l20.1-27L-57.5,93.1z"/>
					<path id="XMLID_677_" d="M-1080,106.5l-0.7-17.5l-7-2.9l-6,14.7l-18.7-7.7l23.3-56.6l27.4,11.3c15.3,6.3,21.1,17.3,15.8,30.2
						c-3.4,8.2-9.1,13.1-16.3,14.2l3.6,23L-1080,106.5z M-1081.9,72l8.6,3.6c4,1.7,7.4,0.1,9.2-4.2c1.7-4.2,0.4-7.6-3.7-9.2
						l-8.6-3.6L-1081.9,72z"/>
					<path id="XMLID_674_" d="M-1020.3,121.7l-21.2-8.7l-6.2,6.8l-19.2-7.9l47.2-46.8l19.2,7.9l-0.3,66.1l-19.9-8.2L-1020.3,121.7z
						 M-1019.4,106.4l1-18.9l-12.8,14.1L-1019.4,106.4z"/>
					<path id="XMLID_672_" d="M-962.1,106.4c-6.8-2.8-13.9,0.6-17,8.1c-3.1,7.6-0.5,15.1,6.3,17.9c4,1.7,10.2,1.2,15.5-1.2l6.1,16
						c-9.1,4.3-20.6,4.8-29.3,1.2c-17.4-7.1-24.9-24.7-17.9-41.5c6.8-16.6,24.7-23.4,42.5-16.1c8.6,3.6,16.4,11.5,19.7,20.2
						l-16.1,8.4C-953.9,113.3-957.7,108.2-962.1,106.4z"/>
					<path id="XMLID_670_" d="M-888.6,119l-5.8,14.2l-29.1-12l-2.9,6.9l26.5,10.9l-5.8,14.2l-26.5-10.9l-2.9,7l29.9,12.3l-5.8,14.2
						l-48.6-20l23.3-56.6L-888.6,119z"/>
				</g>
			</g>
		</g>
	</g>
	<path id="XMLID_207_" class="st14" d="M-932.8-37.5c0,0-11.2,27.8-22.3,55.1c7.3,4.2,10.5,9.5,10.5,9.5l6.2-3.7
		c3,0.9,7.7,5.9,8.2,7.9c0.5,2.1,0.2,7.1,0,7.4c-0.2,0.3-5-2.4-5-2.4c-0.7,2.1-3.6,3.4-3.6,3.4l0.9,2.1l-2.8,1.2l-2.5-1.6l-0.4-2.2
		l-1-0.4l-0.9-1.2l-1.5,0.2l-2.9-3.5c-2.6,1-8.5,0-8.5,0c2.5,3.8,2.6,5.7,2.1,7.1c-0.4,1.1-9.5,8.3-13,11.1
		c-0.7,1.7-1.3,3.3-1.9,4.8c1.5,1.9,4.9,4.4,4.9,4.4l-0.4,1.1c0,0,1.2,0.5-3.1-0.7c-0.9-0.3-1.9-0.6-2.9-1.1
		c-0.1,0.3-0.2,0.6-0.3,0.8c6.4,3.5,10.5,6.3,10.5,6.3l-11.2-4.5c0,0.1-0.1,0.2-0.1,0.4c-2.2,5.5,0.5,11.8,6,14l15.3,6.1
		c5.5,2.2,11.8-0.5,14-6l41.2-101.8L-932.8-37.5z M-968.3,69c-0.4,1.1-1.6,1.6-2.7,1.2c-1.1-0.4-1.6-1.6-1.2-2.7
		c0.4-1.1,1.6-1.6,2.7-1.2C-968.4,66.7-967.9,67.9-968.3,69z"/>
	<g id="XMLID_265_" class="st1">
		<path id="XMLID_266_" class="st15" d="M-986.4,55.5c2.8,1.2,5.4,2.4,7.9,3.7l0.4-0.9c-0.9-0.5-1.4-0.9-1.4-0.9l2.3-3.8l1.3-0.8
			c0,0,0,0,0.1-0.1l2.7-6.7c-3.8,0.1-9.5-0.1-9.5-0.1s-3.4,0.6-5.2,0.9c-1.8,0.3-1.7,0.7-1.4,2.8c0.3,2.2,3.1,4.6,3.1,4.6
			L-986.4,55.5C-986.3,55.5-986.3,55.5-986.4,55.5z"/>
		<path id="XMLID_268_" class="st15" d="M-1003.4,52.1c1,0.5,1.5,1.6,1.1,2.6c-0.4,1.1-1.6,1.6-2.7,1.2c-1.1-0.4-1.6-1.6-1.2-2.7
			c0.4-1,1.5-1.6,2.6-1.3l-9.6-3.8c7.5,0.6,15.3,2.7,22.4,5.4c-3.3-2.2-7.1-7.6-7.1-7.6l3.6-2.8l0.6,0.9c0,0,5.8-1.6,10.6-3.5
			c4.8-1.9,9-1.1,9-1.1s-2.8-5.6-3.7-7.9c-0.5-1.3-3.3-8.1-2.3-13.2l-0.7-0.7c-1.1-1-1.4-2.5-0.8-3.9c0.9-1.9,3.4-2.5,5.1-1.1
			l0.6,0.5c1.6-0.6,3.8-0.8,6.8-0.5c3.2,0.4,6,1.2,8.5,2.1l22.3-55l-35.5-14.1c0,0-32.1,79.2-41.1,101.8c-2.2,5.5,0.5,11.8,6,14
			l15.3,6.1c5.5,2.2,11.8-0.5,14-6l0.1-0.1L-1003.4,52.1z"/>
	</g>
	
		<image style="display:inline;overflow:visible;" width="521" height="478" id="XMLID_128_" xlink:href="A6324FAB.jpg"  transform="matrix(1 0 0 1 -1624.5109 -52.7132)">
	</image>
	<polyline id="XMLID_130_" class="st16" points="-1469,215.7 -1510.5,55 -1505,215.7 -1581.2,73.9 -1539.7,234.6 	"/>
	<path id="XMLID_129_" class="st17" d="M-1483.7,47.9l40.2,147.3c0.6,2.2,2.8,3.5,5,3l29.1-7c2.3-0.5,3.7-2.9,3.1-5.2l-39.1-148.6
		L-1483.7,47.9z"/>
	<path id="XMLID_273_" class="st17" d="M-1327.6,220.3l-6.1-23.1c-0.6-2.3-2.9-3.6-5.2-3l-30.1,8.2c-2.2,0.6-3.6,2.9-2.9,5.2
		L-1331,359l37.2-9.5l-14-53.5"/>
	<path id="XMLID_512_" class="st17" d="M-1234,165.3l-68.7,19c-2.2,0.6-3.6,2.9-2.9,5.2l40.9,151.4l37.2-9.5l-14-53.5"/>
	<line id="XMLID_514_" class="st17" x1="-1217.1" y1="224.5" x2="-1285.8" y2="243.5"/>
	<g id="XMLID_122_" class="st1">
		<path id="XMLID_274_" class="st18" d="M-1360.3,358.6l-38.1-144.5c-0.6-2.3-2.9-3.6-5.2-3l-30,7.9c-2.2,0.6-3.6,2.9-2.9,5.2
			l39.1,143.3"/>
		<line id="XMLID_277_" class="st18" x1="-1379.3" y1="271.2" x2="-1422.5" y2="282.9"/>
	</g>
	<path id="XMLID_164_" class="st17" d="M-1418,32.2l40.2,147.3c0.6,2.2,2.8,3.5,5,3l29.1-7c2.3-0.5,3.7-2.9,3.1-5.2l-39.1-148.6
		L-1418,32.2z"/>
	<polyline id="XMLID_269_" class="st16" points="-1309.5,174 -1353,12.5 -1250,156.5 -1293.1,-3.7 	"/>
	<g id="XMLID_272_" class="st1">
		<line id="XMLID_267_" class="st19" x1="-1539.9" y1="234.6" x2="-1497.3" y2="393.8"/>
		<path id="XMLID_270_" class="st19" d="M-1537,246l48.1-10.8c12.7-3.4,25.7,4.3,28.9,17v0c3.2,12.4-4.2,25.1-16.5,28.6l-48.7,11.5"
			/>
		<line id="XMLID_271_" class="st19" x1="-1480.7" y1="281.7" x2="-1424.5" y2="377.9"/>
	</g>
	<g id="XMLID_2_" class="st1">
		<g id="XMLID_47_">
			<g id="XMLID_51_">
				<g id="XMLID_240_">
					<path id="XMLID_243_" class="st20" d="M-1254.7-800.6l2.5,0.5l1.9-1.9l-1.4-1.4c0,0,2-2,1.9-4c0,0,4.8,0.7,4.9,0.4
						c0.1-0.3-1.3-4.5-2.4-6.1c-1.1-1.5-6.5-4.1-9.3-3.9l-4,5c0,0-9.7-7.5-24.7-3.9c-15,3.6-2.6,16.6-1.1,18.2
						c1.4,1.6,5.5,5.3,5.5,5.3s-3.8,0.7-7.1,3.8s-7.7,6.2-7.7,6.2l-0.8-0.6l-2.1,3.4c0,0,5.1,3.5,8.6,4.1c3.4,0.7,4,0,4,0l-0.3-1.1
						c0,0-3.1-1.1-4-2.8s-1.1-2,0.3-2.8s4-2.4,4-2.4s6.8-2.3,9.4-3.6c2.6-1.3,3.1-2.9,3.1-4.4c-0.1-1.5-2.5-5-2.5-5s1.6,0,2.7,1.3
						s0,2.9,0,2.9s-0.2,1.5-0.9,2.8c-0.7,1.3-4,9.5-4,9.5l-0.8,1l-0.7,3.8c0,0,5.7,1.3,9.6,1c4-0.4,2.8-0.4,2.8-0.4l0-1.1
						c0,0-5.6-1.6-6.4-2.9c-0.8-1.3-0.4-1.4,0.3-2.5c0.6-1.1,8-13.3,8-14.5c0-1.3-0.7-2.8-4-5.2c0,0,5.2-1,7-2.7l3.5,1.9l1.2-0.7
						l1.1,0.7l1,0L-1254.7-800.6z"/>
					<path id="XMLID_241_" class="st20" d="M-1290.6-813.4l-0.7-0.2c-1.8-0.6-3.7,0.6-3.8,2.5l0,0c-0.1,1.3,0.6,2.5,1.8,2.9l1.7,0.7
						L-1290.6-813.4z"/>
				</g>
			</g>
			<path id="XMLID_50_" class="st21" d="M-1310.5-772.8c20.5-6.2,48.3,0.6,48.3,0.6"/>
			<circle id="XMLID_49_" class="st20" cx="-1301.3" cy="-770.9" r="1.9"/>
			<circle id="XMLID_48_" class="st20" cx="-1268.7" cy="-770" r="1.9"/>
		</g>
		<g id="XMLID_25_">
			<g id="XMLID_247_">
				<path id="XMLID_250_" class="st20" d="M-1321.7-784.6l-4.5,2.2c-0.5,0.2-1.1,0.1-1.4-0.3l-8.7-10.8c-0.7-0.8-2-0.4-2,0.7v16.4
					c0,0.2-0.1,0.4-0.2,0.6l-5.5,8.8c-0.3,0.4-0.7,0.6-1.2,0.5l-7.2-1.5c-0.5-0.1-1.1,0.2-1.3,0.7l-3.7,8.2
					c-0.3,0.7-1.1,0.9-1.7,0.5l-10.8-7.4c-0.9-0.6-2.1,0.3-1.7,1.4l4.4,11c0.2,0.4,0.1,0.8-0.2,1.2l-5.1,6.2
					c-0.3,0.4-0.8,0.5-1.3,0.3l-15.3-5.9c-1-0.4-2,0.7-1.4,1.7l7.6,12.5c0.2,0.4,0.2,0.9,0,1.2l-8.8,12.8c-0.3,0.4-0.8,0.6-1.3,0.5
					l-16.5-4.9c-1.1-0.3-1.9,0.9-1.2,1.8l11,14.3c0.4,0.5,0.3,1.3-0.3,1.7l-4.7,3c-0.3,0.2-0.5,0.6-0.5,1v8.6c0,0.8-0.8,1.4-1.6,1.1
					l-11.5-4.4c-1.1-0.4-2.1,1-1.2,1.9l13.9,14.8c0.2,0.2,0.3,0.5,0.3,0.8v11.8c0,0.7-0.5,1.2-1.2,1.1l-17.6-0.9
					c-1.1-0.1-1.7,1.4-0.7,2.1l16.6,11.7c0.9,0.6,0.5,2.1-0.7,2.1h-1.2c-1.2,0-1.6,1.6-0.5,2.2l2,1c1,0.5,0.8,2-0.4,2.2l-8.3,1.1
					c-1.4,0.2-1.3,2.2,0.1,2.3l12.3,1c0.6,0,1,0.5,1.1,1.1l0.9,10.6c0,0.5-0.2,0.9-0.7,1.1l-3.6,1.6c-1.2,0.5-0.7,2.4,0.6,2.2
					l10.4-1.4c0.7-0.1,1.1-0.8,0.9-1.4c-15.7-61.1,20.7-123.6,81.7-140c1.4-0.4,2.8-0.7,4.3-1c0.8-0.2,1.2-1.1,0.7-1.8
					c-0.8-1.1-1.6-2.2-2.4-3.3c-0.1-0.2-0.3-0.3-0.4-0.4c-3.3-1.6-6.3-3.5-8.9-5.9C-1320.8-784.8-1321.3-784.8-1321.7-784.6z"/>
				<path id="XMLID_249_" class="st20" d="M-1394.1-729.9l-1.9,4.7c-0.2,0.5-0.7,0.8-1.3,0.7l-13.6-2.2c-1.1-0.2-1.8,1.1-1,1.9
					l10.9,12.2c0.1,0.2,0.2,0.4,0.3,0.6l1.8,10.2c0.1,0.5-0.1,0.9-0.6,1.2l-6.4,3.7c-0.5,0.3-0.7,0.8-0.5,1.3l2.7,8.6
					c0.2,0.7-0.2,1.4-0.9,1.5l-13,1.7c-1.1,0.1-1.4,1.7-0.4,2.2l10.6,5.2c0.4,0.2,0.6,0.6,0.6,1l0.3,8c0,0.5-0.3,0.9-0.7,1.1
					l-15.3,5.9c-1,0.4-1,1.9,0.1,2.2l14,4.2c0.4,0.1,0.7,0.5,0.8,1l2,15.4c0.1,0.5-0.2,1-0.6,1.2l-15.6,7.4c-1,0.5-0.8,2,0.3,2.2
					l17.7,3.3c0.7,0.1,1.1,0.8,0.9,1.4l-1.5,5.3c-0.1,0.4,0,0.8,0.2,1.1l5.8,6.4c0.5,0.6,0.3,1.6-0.4,1.8l-11.5,4.4
					c-1.1,0.4-0.9,2.1,0.3,2.2l20.3,1.7c0.3,0,0.6,0.2,0.8,0.4l7.9,8.8c0.4,0.5,0.4,1.2-0.1,1.7l-13.7,11.1c-0.9,0.7-0.3,2.2,0.9,2
					l20.2-2.3c1.1-0.1,1.7,1.2,0.9,2l-0.9,0.8c-0.9,0.8-0.1,2.3,1.1,2l2.1-0.6c1.1-0.3,1.9,1,1.2,1.9l-5.5,6.4
					c-0.9,1,0.5,2.5,1.6,1.7l9.8-7.5c0.4-0.3,1.1-0.3,1.5,0.1l7.7,7.4c0.4,0.3,0.5,0.9,0.3,1.3l-1.6,3.5c-0.6,1.2,1.1,2.2,1.9,1.2
					l6.8-8c0.4-0.5,0.3-1.3-0.2-1.7c-52.4-35-67-105.9-32.4-158.8c0.8-1.2,1.6-2.4,2.5-3.6c0.5-0.7,0.1-1.6-0.7-1.8
					c-1.3-0.3-2.6-0.5-3.9-0.9c-0.2,0-0.4,0-0.6,0c-3.5,1-7.1,1.6-10.6,1.5C-1393.5-730.6-1393.9-730.4-1394.1-729.9z"/>
				<path id="XMLID_248_" class="st20" d="M-1382.6-601.4c-3.4-5.7-6.4-11.8-8.8-18.1c-0.5-1.3-2.4-0.8-2.2,0.5l0.2,1.9
					c0,0.4-0.1,0.7-0.4,1l-3.2,2.9c-0.8,0.7-0.3,2,0.8,2h0c1,0,1.5,1.2,0.8,2l-3.9,3.8c-0.9,0.9,0.1,2.4,1.3,1.9l4-1.9
					c0.8-0.4,1.6,0.2,1.6,1v7c0,0.9,1,1.5,1.8,1L-1382.6-601.4z"/>
			</g>
		</g>
		<g id="XMLID_45_">
			<defs>
				<path id="XMLID_42_" d="M-1179.6-689c14.9,59.2-19.1,118-76.4,132.5c-57.9,14.7-117-18.7-132.5-76.4
					c-15.5-57.7,18.7-117,76.4-132.5S-1194.2-746.9-1179.6-689z"/>
			</defs>
			<clipPath id="XMLID_103_">
				<use xlink:href="#XMLID_42_"  style="overflow:visible;"/>
			</clipPath>
			<g id="XMLID_9_" class="st22">
				<path id="XMLID_79_" class="st20" d="M-1289.4-551.3l-29.6-55.6c0,0,12.7-7.9,8.8-23.1c-4-15.1-20.1-17.9-32.8-14.5
					c-12.7,3.4-44.5,12.3-44.5,12.3s7,21.3,27,35.9c4.2-1,15.6-3.8,20.1-5.2c5.7,10,21.6,40.8,26.1,46.1
					C-1308.5-552.7-1296.7-551.1-1289.4-551.3z"/>
				<path id="XMLID_76_" class="st23" d="M-1367.3-624.7l4.1,15.6l28.8-7.1c4.5-1.1,7.2-5.7,6-10.2l0,0c-1.2-4.4-5.7-7-10.1-5.8
					L-1367.3-624.7z"/>
				<path id="XMLID_72_" class="st20" d="M-1370.4-636.9c-2.9-9.1-7.1-28.5-10.5-42l20,31.9l14.3-3.4l1.2-37.7l10.4,41.8l19-4.9
					c-7.6-30.1-23.6-94.9-25.6-101.3c-6.6,3.8-16.9,13.2-16.9,13.2l-4,55.9c0,0-13.7-26.6-16.9-35.3c0,0-6.5,8-10.7,20.6
					c-4.4,13.2-4.5,27-4.5,35.3c0,8.2,3.7,23.8,6,31.3L-1370.4-636.9z"/>
				<g id="XMLID_10_">
					<path id="XMLID_16_" class="st20" d="M-1256.4-666.7L-1256.4-666.7c-9.5,2.5-19.2-3.2-21.7-12.6l-26.7-101.3
						c-2.5-9.5,3.2-19.2,12.6-21.7l0,0c9.5-2.5,19.2,3.2,21.7,12.6l26.7,101.3C-1241.2-678.9-1246.9-669.1-1256.4-666.7z"/>
					<path id="XMLID_15_" class="st23" d="M-1254.9-686.1l-18.2-69.7c-0.8-3.2-4.1-5.2-7.4-4.3l-0.1,0c-3.3,0.8-5.2,4.2-4.4,7.4
						l18.2,69.7c0.8,3.2,4.1,5.2,7.4,4.3l0.1,0C-1256-679.5-1254.1-682.8-1254.9-686.1z"/>
				</g>
				<path id="XMLID_63_" class="st20" d="M-1069.7-743.8c-0.7-1.4-3.2-7.6-2.8-8.5c-1.1-2.2-0.1-5.6,3.2-5.7c5.5,0,10.5-3,15.4-5.9
					c0.9-3.3,1.7-6.8,2.3-10.7c-7.2,2.7-14.6,4.8-22,6.8c-1.5,0.4-4.1-15.1-2.3-15.4c6.2-1.1,11.5-4.4,17.3-6.9
					c2.7-1.2,5.5-2.2,8.3-3.3c0.9-0.5,1.8-1,2.7-1.6c-0.1-1.2-0.1-2.4-0.2-3.7l-11.6,3.7c-2,0.6-4.1,1.1-6.3,1.2
					c-0.4,0-0.8,0-1.1-0.1c-4.2,1.4-23.4,10.3-25.9,10.7c-1.7,0.3,18.5,61.2,18.5,61.2c0.9,3.2,4.8,4.5,7.5,2.5c0,0,0,0,0.1,0
					c0.1-0.2,0.2-0.5,0.3-0.7c1.9-3.6,4.3-6.8,7-9.8c5-8.8,10.1-17.7,11.5-19.6C-1048.5-751.8-1068.3-741.1-1069.7-743.8z"/>
				<path id="XMLID_60_" class="st20" d="M-1069.5-726.5c-2.2,1.4-4.4,2.6-6.7,3.5c-2.8,0.7-5.5,0.7-6-1.3l-16.6-54.4
					c-0.6-2.1,1.4-4.5,4.3-5.3l13.5-3.7c0,0,0,0,0,0c1.6-0.4,2.5-2,2.1-3.5l-0.2-0.9c-1-3.5-4.9-5.4-8.9-4.3l-20.3,2.6
					c-4,1.1-6.4,4.8-5.4,8.2l25.9,93.8c0.1,0.4,15.9-12.5,21.7-16.4c3.2-2.9,6.2-6.1,9-9.1l0,0
					C-1058.3-722.2-1065.1-729.3-1069.5-726.5z"/>
				<path id="XMLID_70_" class="st20" d="M-1173.6-687.5c0.1,0-9.2-25.4-9.2-25.4c-3.9-15.2-39.9-46.4-39.9-46.4
					c0,0,20.2,46.7,20.2,46.7l-37.8-49.1c0,0-13.3-10-18.9-7.4l25,96.8l16.2-4.2l-11-42.8l29.5,38L-1173.6-687.5z"/>
				<g id="XMLID_39_">
					<g id="XMLID_221_">
						<path id="XMLID_226_" class="st20" d="M-1388.3-631.7c0,0,13.4,45.3,30.3,61.4c9.2,8.7,11.3,19.7,11.3,19.7l-15.8-54.7
							l-12.7-30.1L-1388.3-631.7z"/>
					</g>
				</g>
				<g id="XMLID_11_">
					<path id="XMLID_13_" class="st20" d="M-1293.7-656.2L-1293.7-656.2c-9.5,2.5-19.2-3.2-21.7-12.6l-26.7-101.3
						c-2.5-9.5,3.2-19.2,12.6-21.7l0,0c9.5-2.5,19.2,3.2,21.7,12.6l26.7,101.3C-1278.6-668.4-1284.3-658.6-1293.7-656.2z"/>
					<path id="XMLID_43_" class="st23" d="M-1292.3-675.6l-18.2-69.7c-0.8-3.2-4.1-5.2-7.4-4.3l-0.1,0c-3.3,0.8-5.2,4.2-4.4,7.4
						l18.2,69.7c0.8,3.2,4.1,5.2,7.4,4.3l0.1,0C-1293.4-669-1291.4-672.3-1292.3-675.6z"/>
				</g>
				<polygon id="XMLID_94_" class="st20" points="-1234.2,-672.2 -1210.9,-580.7 -1194.5,-584.6 -1218,-676.4 				"/>
				<polygon id="XMLID_77_" class="st20" points="-1215.2,-663.6 -1172.5,-674.5 -1175.4,-687.3 -1218,-676.4 				"/>
				<path id="XMLID_98_" class="st20" d="M-1208.3-635.7l25.5-6.4c7.3-1.8,11.8-9.3,9.9-16.6l-3.6-14.1c-1.9-7.3-9.3-11.8-16.7-9.9
					l-25.6,6.6L-1208.3-635.7z"/>
				<g id="XMLID_14_">
					<path id="XMLID_22_" class="st23" d="M-1214.9-663.6l4.1,15.6l17.4-4c4.5-1.1,7.2-5.7,6-10.2v0c-1.2-4.4-5.7-7-10.1-5.8
						L-1214.9-663.6z"/>
				</g>
				<polygon id="XMLID_100_" class="st20" points="-1198.4,-591.9 -1160.1,-601.8 -1158.5,-614.7 -1201.2,-603.7 				"/>
				<g id="XMLID_222_">
					<path id="XMLID_224_" class="st20" d="M-1293.9-656.1L-1293.9-656.1c9.5-2.5,19.2,3.2,21.7,12.6l26.7,101.3
						c2.5,9.5-3.2,19.2-12.6,21.7l0,0c-9.5,2.5-19.2-3.2-21.7-12.6l-26.7-101.3C-1309-643.9-1303.4-653.6-1293.9-656.1z"/>
					<path id="XMLID_223_" class="st23" d="M-1295.2-637.9l30.2,116.2c0.8,3.2,4.1,5.2,7.4,4.3l0.1,0c3.3-0.8,5.2-4.2,4.4-7.4
						l-30.2-116.2c-0.8-3.2-4.1-5.2-7.4-4.3l-0.1,0C-1294-644.4-1296-641.1-1295.2-637.9z"/>
				</g>
				<g id="XMLID_67_">
					<path id="XMLID_73_" class="st20" d="M-1255.5-667.7L-1255.5-667.7c9.5-2.5,19.2,3.2,21.7,12.6l26.7,101.3
						c2.5,9.5-3.2,19.2-12.6,21.7l0,0c-9.5,2.5-19.2-3.2-21.7-12.6l-26.7-101.3C-1270.6-655.5-1264.9-665.2-1255.5-667.7z"/>
					<path id="XMLID_69_" class="st23" d="M-1256.7-649.4l30.2,116.2c0.8,3.2,4.1,5.2,7.4,4.3l0.1,0c3.3-0.8,5.2-4.2,4.4-7.4
						l-30.2-116.2c-0.8-3.2-4.1-5.2-7.4-4.3l-0.1,0C-1255.6-656-1257.6-652.7-1256.7-649.4z"/>
				</g>
			</g>
		</g>
	</g>
	<rect id="XMLID_56_" x="-1104" y="-890.7" style="display:inline;fill:none;" width="150.7" height="77.3"/>
	<text id="XMLID_97_" transform="matrix(1 0 0 1 -1103.6504 -854.6191)" class="st1"><tspan x="0" y="0" style="font-family:'ItalicC'; font-size:48px; letter-spacing:-4;">MOON</tspan><tspan x="6.7" y="38" style="font-family:'ItalicC'; font-size:48px; letter-spacing:-4;">RACE</tspan></text>
	
		<rect id="XMLID_3_" x="-1290.1" y="-603.1" transform="matrix(0.9683 -0.2499 0.2499 0.9683 108.473 -338.4446)" class="st24" width="23.5" height="13.5"/>
	<g id="XMLID_54_" class="st1">
		<g id="XMLID_158_">
			<g id="XMLID_163_">
				<g id="XMLID_166_">
					<path id="XMLID_168_" class="st20" d="M-1024.2-511.4l2.5,0.5l1.9-1.9l-1.4-1.4c0,0,2-2,1.9-4c0,0,4.8,0.7,4.9,0.4
						c0.1-0.3-1.3-4.5-2.4-6.1c-1.1-1.5-6.5-4.1-9.3-3.9l-4,5c0,0-9.7-7.5-24.7-3.9c-15,3.6-2.6,16.6-1.1,18.2
						c1.4,1.6,5.5,5.3,5.5,5.3s-3.8,0.7-7.1,3.8s-7.7,6.2-7.7,6.2l-0.8-0.6l-2.1,3.4c0,0,5.1,3.5,8.6,4.1c3.4,0.7,4,0,4,0l-0.3-1.1
						c0,0-3.1-1.1-4-2.8s-1.1-2,0.3-2.8c1.4-0.8,4-2.4,4-2.4s6.8-2.3,9.4-3.6c2.6-1.3,3.1-2.9,3.1-4.4c-0.1-1.5-2.5-5-2.5-5
						s1.6,0,2.7,1.3c1.1,1.3,0,2.9,0,2.9s-0.2,1.5-0.9,2.8s-4,9.5-4,9.5l-0.8,1l-0.7,3.8c0,0,5.7,1.3,9.6,1c4-0.4,2.8-0.4,2.8-0.4
						l0-1.1c0,0-5.6-1.6-6.4-2.9s-0.4-1.4,0.3-2.5c0.6-1.1,8-13.3,8-14.5c0-1.3-0.7-2.8-4-5.2c0,0,5.2-1,7-2.7l3.5,1.9l1.2-0.7
						l1.1,0.7l1,0L-1024.2-511.4z"/>
					<path id="XMLID_167_" class="st20" d="M-1060.1-524.1l-0.7-0.2c-1.8-0.6-3.7,0.6-3.8,2.5l0,0c-0.1,1.3,0.6,2.5,1.8,2.9l1.7,0.7
						L-1060.1-524.1z"/>
				</g>
			</g>
			<path id="XMLID_162_" class="st21" d="M-1080-483.6c20.5-6.2,48.3,0.6,48.3,0.6"/>
			<circle id="XMLID_160_" class="st20" cx="-1070.8" cy="-481.6" r="1.9"/>
			<circle id="XMLID_159_" class="st20" cx="-1038.2" cy="-480.7" r="1.9"/>
		</g>
		<g id="XMLID_149_">
			<g id="XMLID_151_">
				<path id="XMLID_154_" class="st20" d="M-1091.2-495.3l-4.5,2.2c-0.5,0.2-1.1,0.1-1.4-0.3l-8.7-10.8c-0.7-0.8-2-0.4-2,0.7v16.4
					c0,0.2-0.1,0.4-0.2,0.6l-5.5,8.8c-0.3,0.4-0.7,0.6-1.2,0.5l-7.2-1.5c-0.5-0.1-1.1,0.2-1.3,0.7l-3.7,8.2
					c-0.3,0.7-1.1,0.9-1.7,0.5l-10.8-7.4c-0.9-0.6-2.1,0.3-1.7,1.4l4.4,11c0.2,0.4,0.1,0.8-0.2,1.2l-5.1,6.2
					c-0.3,0.4-0.8,0.5-1.3,0.3l-15.3-5.9c-1-0.4-2,0.7-1.4,1.7l7.6,12.5c0.2,0.4,0.2,0.9,0,1.2l-8.8,12.8c-0.3,0.4-0.8,0.6-1.3,0.5
					l-16.5-4.9c-1.1-0.3-1.9,0.9-1.2,1.8l11,14.3c0.4,0.5,0.3,1.3-0.3,1.7l-4.7,3c-0.3,0.2-0.5,0.6-0.5,1v8.6c0,0.8-0.8,1.4-1.6,1.1
					l-11.5-4.4c-1.1-0.4-2.1,1-1.2,1.9l13.9,14.8c0.2,0.2,0.3,0.5,0.3,0.8v11.8c0,0.7-0.5,1.2-1.2,1.1l-17.6-0.9
					c-1.1-0.1-1.7,1.4-0.7,2.1l16.6,11.7c0.9,0.6,0.5,2.1-0.7,2.1h-1.2c-1.2,0-1.6,1.6-0.5,2.2l2,1c1,0.5,0.8,2-0.4,2.2l-8.3,1.1
					c-1.4,0.2-1.3,2.2,0.1,2.3l12.3,1c0.6,0,1,0.5,1.1,1.1l0.9,10.6c0,0.5-0.2,0.9-0.7,1.1l-3.6,1.6c-1.2,0.5-0.7,2.4,0.6,2.2
					l10.4-1.4c0.7-0.1,1.1-0.8,0.9-1.4c-15.7-61.1,20.7-123.6,81.7-140c1.4-0.4,2.8-0.7,4.3-1c0.8-0.2,1.2-1.1,0.7-1.8
					c-0.8-1.1-1.6-2.2-2.4-3.3c-0.1-0.2-0.3-0.3-0.4-0.4c-3.3-1.6-6.3-3.5-8.9-5.9C-1090.3-495.5-1090.8-495.5-1091.2-495.3z"/>
				<path id="XMLID_153_" class="st20" d="M-1163.6-440.6l-1.9,4.7c-0.2,0.5-0.7,0.8-1.3,0.7l-13.6-2.2c-1.1-0.2-1.8,1.1-1,1.9
					l10.9,12.2c0.1,0.2,0.2,0.4,0.3,0.6l1.8,10.2c0.1,0.5-0.1,0.9-0.6,1.2l-6.4,3.7c-0.5,0.3-0.7,0.8-0.5,1.3l2.7,8.6
					c0.2,0.7-0.2,1.4-0.9,1.5l-13,1.7c-1.1,0.1-1.4,1.7-0.4,2.2l10.6,5.2c0.4,0.2,0.6,0.6,0.6,1l0.3,8c0,0.5-0.3,0.9-0.7,1.1
					l-15.3,5.9c-1,0.4-1,1.9,0.1,2.2l14,4.2c0.4,0.1,0.7,0.5,0.8,1l2,15.4c0.1,0.5-0.2,1-0.6,1.2l-15.6,7.4c-1,0.5-0.8,2,0.3,2.2
					l17.7,3.3c0.7,0.1,1.1,0.8,0.9,1.4l-1.5,5.3c-0.1,0.4,0,0.8,0.2,1.1l5.8,6.4c0.5,0.6,0.3,1.6-0.4,1.8l-11.5,4.4
					c-1.1,0.4-0.9,2.1,0.3,2.2l20.3,1.7c0.3,0,0.6,0.2,0.8,0.4l7.9,8.8c0.4,0.5,0.4,1.2-0.1,1.7l-13.7,11.1c-0.9,0.7-0.3,2.2,0.9,2
					l20.2-2.3c1.1-0.1,1.7,1.2,0.9,2l-0.9,0.8c-0.9,0.8-0.1,2.3,1.1,2l2.1-0.6c1.1-0.3,1.9,1,1.2,1.9l-5.5,6.4
					c-0.9,1,0.5,2.5,1.6,1.7l9.8-7.5c0.4-0.3,1.1-0.3,1.5,0.1l7.7,7.4c0.4,0.3,0.5,0.9,0.3,1.3l-1.6,3.5c-0.6,1.2,1.1,2.2,1.9,1.2
					l6.8-8c0.4-0.5,0.3-1.3-0.2-1.7c-52.4-35-67-105.9-32.4-158.8c0.8-1.2,1.6-2.4,2.5-3.6c0.5-0.7,0.1-1.6-0.7-1.8
					c-1.3-0.3-2.6-0.5-3.9-0.9c-0.2,0-0.4,0-0.6,0c-3.5,1-7.1,1.6-10.6,1.5C-1163-441.3-1163.4-441.1-1163.6-440.6z"/>
				<path id="XMLID_152_" class="st20" d="M-1152.1-312.1c-3.4-5.7-6.4-11.8-8.8-18.1c-0.5-1.3-2.4-0.8-2.2,0.5l0.2,1.9
					c0,0.4-0.1,0.7-0.4,1l-3.2,2.9c-0.8,0.7-0.3,2,0.8,2l0,0c1,0,1.5,1.2,0.8,2l-3.9,3.8c-0.9,0.9,0.1,2.4,1.3,1.9l4-1.9
					c0.8-0.4,1.6,0.2,1.6,1v7c0,0.9,1,1.5,1.8,1L-1152.1-312.1z"/>
			</g>
		</g>
		<g id="XMLID_55_">
			<defs>
				<path id="XMLID_65_" d="M-949.1-399.7c14.9,59.2-19.1,118-76.4,132.5c-57.9,14.7-117-18.7-132.5-76.4s18.7-117,76.4-132.5
					C-1023.9-491.6-963.7-457.6-949.1-399.7z"/>
			</defs>
			<clipPath id="XMLID_104_">
				<use xlink:href="#XMLID_65_"  style="overflow:visible;"/>
			</clipPath>
			<g id="XMLID_68_" class="st25">
				<path id="XMLID_148_" class="st20" d="M-1058.9-262l-29.6-55.6c0,0,12.7-7.9,8.8-23.1s-20.1-17.9-32.8-14.5
					s-44.5,12.3-44.5,12.3s7,21.3,27,35.9c4.2-1,15.6-3.8,20.1-5.2c5.7,10,21.6,40.8,26.1,46.1C-1078-263.4-1066.2-261.8-1058.9-262
					z"/>
				<path id="XMLID_147_" class="st23" d="M-1136.7-335.4l4.1,15.6l28.8-7.1c4.5-1.1,7.2-5.7,6-10.2v0c-1.2-4.4-5.7-7-10.1-5.8
					L-1136.7-335.4z"/>
				<path id="XMLID_146_" class="st20" d="M-1139.9-347.6c-2.9-9.1-7.1-28.5-10.5-42l20,31.9l14.3-3.4l1.2-37.7l10.4,41.8l19-4.9
					c-7.6-30.1-23.6-94.9-25.6-101.3c-6.6,3.8-16.9,13.2-16.9,13.2l-4,55.9c0,0-13.7-26.6-16.9-35.3c0,0-6.5,8-10.7,20.6
					c-4.4,13.2-4.5,27-4.5,35.3c0,8.2,3.7,23.8,6,31.3L-1139.9-347.6z"/>
				<g id="XMLID_143_">
					<path id="XMLID_145_" class="st20" d="M-1025.8-377.4L-1025.8-377.4c-9.5,2.5-19.2-3.2-21.7-12.6l-26.7-101.3
						c-2.5-9.5,3.2-19.2,12.6-21.7l0,0c9.5-2.5,19.2,3.2,21.7,12.6l26.7,101.3C-1010.7-389.6-1016.4-379.9-1025.8-377.4z"/>
					<path id="XMLID_144_" class="st23" d="M-1024.9-398.7l-18.2-69.7c-0.8-3.2-4.1-5.2-7.4-4.3l-0.1,0c-3.3,0.8-5.2,4.2-4.4,7.4
						l18.2,69.7c0.8,3.2,4.1,5.2,7.4,4.3l0.1,0C-1026-392.1-1024-395.4-1024.9-398.7z"/>
				</g>
				<g id="XMLID_138_">
					<g id="XMLID_140_">
						<path id="XMLID_141_" class="st20" d="M-1017.9-262.5l-25.8-101.2c-1.2-4.3-5.8-6.9-10.4-5.8l-20.3,4.8
							c-4.5,1.1-7.3,5.5-6.1,9.9l25.4,98.2C-1045.6-252.6-1027-254.2-1017.9-262.5z"/>
					</g>
				</g>
				<path id="XMLID_137_" class="st23" d="M-1042.3-260l-23.2-91.7c-0.8-2.9,1-5.9,4-6.7l0,0c3-0.8,6,1,6.7,4l23.3,91.7L-1042.3-260
					z"/>
				<path id="XMLID_136_" class="st20" d="M-839.2-454.5c-0.7-1.4-3.2-7.6-2.8-8.5c-1.1-2.2-0.1-5.6,3.2-5.7c5.5,0,10.5-3,15.4-5.9
					c0.9-3.3,1.7-6.8,2.3-10.7c-7.2,2.7-14.6,4.8-22,6.8c-1.5,0.4-4.1-15.1-2.3-15.4c6.2-1.1,11.5-4.4,17.3-6.9
					c2.7-1.2,5.5-2.2,8.3-3.3c0.9-0.5,1.8-1,2.7-1.6c-0.1-1.2-0.1-2.4-0.2-3.7l-11.6,3.7c-2,0.6-4.1,1.1-6.3,1.2
					c-0.4,0-0.8,0-1.1-0.1c-4.2,1.4-23.4,10.3-25.9,10.7c-1.7,0.3,18.5,61.2,18.5,61.2c0.9,3.2,4.8,4.5,7.5,2.5c0,0,0,0,0.1,0
					c0.1-0.2,0.2-0.5,0.3-0.7c1.9-3.6,4.3-6.8,7-9.8c5-8.8,10.1-17.7,11.5-19.6C-818-462.6-837.8-451.8-839.2-454.5z"/>
				<path id="XMLID_135_" class="st20" d="M-838.9-437.2c-2.2,1.4-4.4,2.6-6.7,3.5c-2.8,0.7-5.5,0.7-6-1.3l-16.6-54.4
					c-0.6-2.1,1.4-4.5,4.3-5.3l13.5-3.7c0,0,0,0,0,0c1.6-0.4,2.5-2,2.1-3.5l-0.2-0.9c-1-3.5-4.9-5.4-8.9-4.3l-20.3,2.6
					c-4,1.1-6.4,4.8-5.4,8.2l25.9,93.8c0.1,0.4,15.9-12.5,21.7-16.4c3.2-2.9,6.2-6.1,9-9.1l0,0C-827.8-432.9-834.6-440-838.9-437.2z
					"/>
				<path id="XMLID_126_" class="st20" d="M-943.1-398.2c0.1,0-9.2-25.4-9.2-25.4c-3.9-15.2-39.9-46.4-39.9-46.4
					c0,0,20.2,46.7,20.2,46.7l-37.8-49.1c0,0-13.3-10-18.9-7.4l25,96.8l16.2-4.2l-11-42.8l29.5,38L-943.1-398.2z"/>
				<g id="XMLID_115_">
					<g id="XMLID_117_">
						<path id="XMLID_123_" class="st20" d="M-1157.7-342.4c0,0,13.4,45.3,30.3,61.4c9.2,8.7,11.3,19.7,11.3,19.7l-15.8-54.7
							l-12.7-30.1L-1157.7-342.4z"/>
					</g>
				</g>
				<g id="XMLID_109_">
					<path id="XMLID_111_" class="st20" d="M-1063.2-366.9L-1063.2-366.9c-9.5,2.5-19.2-3.2-21.7-12.6l-26.7-101.3
						c-2.5-9.5,3.2-19.2,12.6-21.7l0,0c9.5-2.5,19.2,3.2,21.7,12.6l26.7,101.3C-1048.1-379.1-1053.8-369.4-1063.2-366.9z"/>
					<path id="XMLID_110_" class="st23" d="M-1062.3-388.2l-18.2-69.7c-0.8-3.2-4.1-5.2-7.4-4.3l-0.1,0c-3.3,0.8-5.2,4.2-4.4,7.4
						l18.2,69.7c0.8,3.2,4.1,5.2,7.4,4.3l0.1,0C-1063.4-381.6-1061.4-384.9-1062.3-388.2z"/>
				</g>
				<path id="XMLID_105_" class="st20" d="M-1001.7-306.2l3.7,14.9c0.8,2.9-1,5.9-3.9,6.7l-0.1,0c-2.9,0.7-5.9-1-6.6-3.9l-18.3-73.5
					c-0.8-2.9,1-5.9,3.9-6.7l0.1,0c2.9-0.7,5.9,1,6.6,3.9l1.4,5.6l12.8-3.2l-3.3-12.7c-1.1-4.2-5.6-6.7-10-5.6l-19.8,5.2
					c-4.4,1.1-7.1,5.5-6,9.7c0,0,24.2,95.2,27.3,106.4c0,0,13.4-4.2,17.1-5.6c4.5-1.6,17.6-7.4,17.6-7.4l-9.5-37.1L-1001.7-306.2z"
					/>
				<polygon id="XMLID_99_" class="st20" points="-1003.7,-382.9 -980.4,-291.5 -964,-295.3 -987.5,-387.1 				"/>
				<polygon id="XMLID_93_" class="st20" points="-984.7,-374.4 -942,-385.3 -944.8,-398 -987.5,-387.1 				"/>
				<path id="XMLID_78_" class="st20" d="M-977.8-346.4l25.5-6.4c7.3-1.8,11.8-9.3,9.9-16.6l-3.6-14.1c-1.9-7.3-9.3-11.8-16.7-9.9
					l-25.6,6.6L-977.8-346.4z"/>
				<g id="XMLID_74_">
					<path id="XMLID_75_" class="st23" d="M-984.4-374.3l4.1,15.6l17.4-4c4.5-1.1,7.2-5.7,6-10.2v0c-1.2-4.4-5.7-7-10.1-5.8
						L-984.4-374.3z"/>
				</g>
				<polygon id="XMLID_71_" class="st20" points="-967.8,-302.6 -929.6,-312.5 -928,-325.4 -970.7,-314.4 				"/>
			</g>
		</g>
	</g>
	
		<rect id="XMLID_44_" x="-1059.6" y="-313.8" transform="matrix(0.9683 -0.2499 0.2499 0.9683 43.4839 -271.6476)" class="st24" width="23.5" height="13.5"/>
	<g id="XMLID_40_" class="st1">
		<g id="XMLID_230_">
			<path id="XMLID_234_" class="st26" d="M-1287.7-619.7"/>
		</g>
	</g>
</g>
<g id="Слой_5">
</g>
<g id="Слой_6">
	<g id="XMLID_66_">
		<g id="XMLID_264_">
			<path id="XMLID_389_" class="st27" d="M42.5,211.5c0-86.5,70.2-156.7,156.7-156.7c8.5,0,16.8,0.7,24.8,2l0,0l-13.6-26.5l-2.2,9.5
				L192.6,19L192,43.9l-11.4-11.5l-3.1,12.8l-24.8-31.8l4.1,34.9L146.5,41l-1.5,11.2l-20.6-22.1l2.2,27.3l-10.1-4.9L116,63.8
				L97.5,45.6l7,25.9L68.1,42.1l16.6,40.9l-13.2-2.7l6.3,14.3L42.5,76l22.9,33.4l-12.7-2.6l6.6,11.4l-24.6-6.6L49.3,130l-9.7,2.2
				l4.2,7.4l-28.8,0.9l23.7,21.3l-10.6,3.3l7.6,8.9l-31.7,5.8l30.2,17.1l-5.8,5.2l6.1,5.6l-17.3,7.8l18.7,8.8l-6.9,8l7.2,5.5
				l-19.6,11.5l25.8,6.9l-7,8.6l12.1,6.5h0c2.4,8.8,7.6,16.5,14.7,22.1l3.8,3c0.7,0.7,1.5,1.3,2.4,1.8
				C52.1,273.3,42.5,243.5,42.5,211.5z"/>
			<g id="XMLID_373_">
				<g id="XMLID_386_">
					<path id="XMLID_388_" class="st27" d="M295.8,40.6l1.8,1.1c0.4,0.3,0.9,0.3,1.4,0.1l1.3-0.6c0.7-0.3,1.1-1.2,0.7-1.9v0
						c-0.3-0.7,0-1.4,0.6-1.8c0.8-0.5,1.9-1.3,2.7-2.4c0.4-0.6,1.2-0.8,1.8-0.4c1.7,0.9,3.3,1.7,4.7,2.2c0.3-0.3,0.6-6.4,0-8.9
						c-0.6-2.3-5.5-7.7-9.1-9.3c-0.4-0.2-0.9-0.2-1.3,0.1l-5.8,3.4c-0.6,0.4-1.4,0.2-1.9-0.4c-2.4-3.4-11.3-13.7-28.7-16.1
						c-20.9-2.8-11.5,19.8-10.4,22.6c0.6,1.7,2.2,5,3.3,7.2c0.5,1-0.3,2.1-1.3,2c-2-0.1-5.2,0.2-8.5,1.5c-5.7,2.3-12.5,4.1-12.5,4.1
						s-1.2-0.1-1.5,0c-1.1,0.5-2.7,1.4-2.7,1.4c-0.6,0.5-0.7,1.4-0.3,2c1.6,2.1,5,6.4,8,8.3c4,2.5,5,1.9,5,1.9s0.3-1.1,0.2-1.5
						c-0.6-1.5-3.3-2.9-3.7-5.5s-0.4-3,1.7-3.4c1.9-0.3,4.2-0.8,6.7-0.8c2.7,0,9.5,0.1,13.2-0.2c4-0.4,5.4-2.1,6-4
						c0.6-1.9-0.8-7.6-0.8-7.6s1.8,0.1,2.5,2.3s-2.2,6.2-3.7,7.5c-1.4,1.2-8.5,8.8-9.6,9.9c-0.1,0.1-0.2,0.2-0.3,0.3l-1,0.6
						c-0.2,0.1-0.4,0.3-0.5,0.5l-2.5,4c-0.4,0.7-0.2,1.5,0.4,2c2.1,1.4,6.1,2.8,9.6,4.6c4.8,2.5,5.7,2.4,5.7,2.4s0.3-0.7,0.4-1
						c0.4-1-0.4-1.9-1.5-2.8c-1.9-1.6-5.2-4.9-5.5-6.3c-0.4-2.1,0.2-2,1.6-3.1c0.7-0.5,4.6-3.6,8.6-6.8c4.2-3.4,7.9-5.7,8.7-7.7
						c0.5-1.3,0.5-3-1.1-6.1c-0.5-1,0.3-2.2,1.4-2.1c2,0.2,4.7,0.3,6.6-0.1c0.5-0.1,1.1,0.1,1.4,0.5l2.4,2.9
						c0.3,0.4,0.8,0.6,1.3,0.5l0.2,0c0.5-0.1,3.2,1.7,3.2,1.7l0.3,2C295.2,40,295.4,40.3,295.8,40.6z"/>
					<path id="XMLID_387_" class="st27" d="M255.9,6.3l-0.7-0.6c-2-1.7-5-1-6.1,1.3v0c-0.8,1.6-0.4,3.5,0.9,4.6l1.8,1.7L255.9,6.3z"
						/>
				</g>
				<g id="XMLID_384_">
					<path id="XMLID_385_" class="st27" d="M269.9,75.1c-7.5-4.4-32.9-18.2-56.1-19.9c-1.4-0.1-2.5-1.3-2.4-2.7v0
						c0.1-1.5,1.4-2.7,2.9-2.5c24.6,1.8,50.5,16,58.4,20.6c1.3,0.8,1.7,2.4,0.9,3.7v0C272.7,75.4,271.1,75.8,269.9,75.1z"/>
				</g>
				<circle id="XMLID_382_" class="st27" cx="221.1" cy="56" r="3.5"/>
				<circle id="XMLID_376_" class="st27" cx="263.5" cy="71.5" r="3.5"/>
			</g>
		</g>
	</g>
</g>
</svg>
