<?xml version="1.0" encoding="utf-8"?>
<!-- Generator: Adobe Illustrator 22.1.0, SVG Export Plug-In . SVG Version: 6.00 Build 0)  -->
<svg version="1.1" id="logo_x5F_911" xmlns="http://www.w3.org/2000/svg" xmlns:xlink="http://www.w3.org/1999/xlink" x="0px"
	 y="0px" viewBox="0 0 373.9 145.3" style="enable-background:new 0 0 373.9 145.3;" xml:space="preserve">
<style type="text/css">
	.st0{fill:#D01A39;}
	.st1{fill:#FFFFFF;}
	.st2{fill:#194093;}
</style>
<rect x="9.1" y="8.7" class="st0" width="354.2" height="126.3"/>
<path class="st1" d="M339.2,32.2V107H34.6V32.2H339.2 M339.9,31.5h-306v76.2h306V31.5L339.9,31.5z"/>
<g>
	<rect x="39.1" y="37" class="st1" width="295.6" height="65.4"/>
</g>
<g>
	<path class="st0" d="M76.9,82.1c0-4.2-5-5.2-11-5.5C52.8,75.6,44.2,71.2,44,58.1c-0.5-26,46.2-26,45.9,0H75.3
		c0-8-16.2-7.3-16.7-0.2c-0.3,4.6,4.1,5.5,9.5,6.1c11.9,1.3,23.6,3.1,23.6,18.1c0,25.3-49,25.7-48.6-0.8H58
		C58,89,76.9,89.1,76.9,82.1z"/>
	<path class="st0" d="M100.4,39.6h26.5c28.8,0.1,28.8,44.8,0,44.8h-11.1v15.4h-15.4V39.6z M126.8,53.4c-3.6-0.1-7.5,0-11,0v17.2h11
		C135.2,70.6,135.7,53.5,126.8,53.4z"/>
	<path class="st0" d="M153.7,69.8c0-41.6,61.7-41.6,61.7,0C215.4,111.5,153.7,111.5,153.7,69.8z M199.7,69.8
		c0-21.7-30.2-21.7-30.2,0C169.5,91.6,199.7,91.6,199.7,69.8z"/>
	<path class="st0" d="M258,99.8l-10.3-17.7h-8v17.7h-15.4V39.6h26.4c23.6,0.1,27.9,28.5,12.7,38.9l11.8,19.1v2.2H258z M250.7,53.4
		c-3.6-0.1-7.4,0-11,0v15h11C259,68.4,259.4,53.5,250.7,53.4z"/>
	<path class="st0" d="M320.5,39.6v13.8h-14.7v46.4h-15.2V53.4h-14.8V39.6H320.5z"/>
</g>
<g>
	<path class="st1" d="M83.1,126.1l1-1.1c1.4,1.3,2.8,1.9,4.7,1.9c1.8,0,3-1,3-2.3v0c0-1.3-0.7-2-3.6-2.6c-3.1-0.7-4.6-1.7-4.6-3.9v0
		c0-2.1,1.9-3.7,4.5-3.7c2,0,3.4,0.6,4.8,1.7l-0.9,1.2c-1.3-1-2.5-1.5-3.9-1.5c-1.8,0-2.9,1-2.9,2.2v0c0,1.3,0.7,2,3.7,2.7
		c3,0.7,4.5,1.8,4.5,3.9v0c0,2.3-2,3.9-4.7,3.9C86.5,128.3,84.7,127.6,83.1,126.1z"/>
	<path class="st1" d="M98.4,114.4h5.1c3.1,0,5.1,1.6,5.1,4.3v0c0,2.9-2.5,4.5-5.4,4.5H100v4.8h-1.5V114.4z M103.4,121.9
		c2.3,0,3.8-1.2,3.8-3v0c0-2-1.5-3-3.7-3H100v6H103.4z"/>
	<path class="st1" d="M112.8,121.3L112.8,121.3c0-3.8,2.8-7.1,7-7.1s7,3.3,7,7v0c0,3.8-2.8,7.1-7,7.1S112.8,125.1,112.8,121.3z
		 M125.2,121.3L125.2,121.3c0-3.1-2.3-5.7-5.4-5.7s-5.4,2.5-5.4,5.6v0c0,3.1,2.3,5.6,5.4,5.6S125.2,124.4,125.2,121.3z"/>
	<path class="st1" d="M132,114.4h5.9c1.7,0,3,0.5,3.9,1.4c0.7,0.7,1.1,1.6,1.1,2.7v0c0,2.3-1.6,3.6-3.7,4l4.2,5.6h-1.9l-4-5.3h-3.9
		v5.3H132V114.4z M137.7,121.4c2.1,0,3.5-1.1,3.5-2.8v0c0-1.7-1.3-2.7-3.5-2.7h-4.2v5.5H137.7z"/>
	<path class="st1" d="M151.5,115.9h-4.6v-1.4h10.7v1.4h-4.6v12.2h-1.6V115.9z"/>
	<path class="st1" d="M170.4,121.2V121c-0.9,1.3-2.1,2.2-3.9,2.2c-2.8,0-4.8-1.8-4.8-4.2v0c0-2.6,2-4.6,4.9-4.6
		c1.6,0,2.7,0.5,3.6,1.4c1,1,1.7,2.6,1.7,5.3v0c0,4.3-2.3,7.4-5.7,7.4c-1.8,0-3.1-0.7-4.2-1.7l0.9-1.2c1.1,1,2.1,1.5,3.4,1.5
		C169,126.9,170.4,124.2,170.4,121.2z M170.1,118.7L170.1,118.7c0-1.8-1.4-3.1-3.5-3.1s-3.3,1.5-3.3,3.2v0c0,1.7,1.4,3,3.4,3
		C168.8,121.8,170.1,120.3,170.1,118.7z"/>
	<path class="st1" d="M178.6,115.9l-2.6,0.8l-0.4-1.3l3.3-1.2h1.1v13.8h-1.5V115.9z"/>
	<path class="st1" d="M187.5,115.9l-2.6,0.8l-0.4-1.3l3.3-1.2h1.1v13.8h-1.5V115.9z"/>
	<path class="st1" d="M194.5,126.1h1.8v2.1h-1.8V126.1z"/>
	<path class="st1" d="M200.2,121.3L200.2,121.3c0-3.9,2.9-7.1,6.9-7.1c2.5,0,4,0.9,5.3,2.2l-1.1,1.1c-1.2-1.1-2.4-1.9-4.3-1.9
		c-3,0-5.3,2.5-5.3,5.6v0c0,3.2,2.3,5.6,5.3,5.6c1.9,0,3.1-0.7,4.4-2l1,1c-1.4,1.4-3,2.4-5.5,2.4
		C203.1,128.4,200.2,125.2,200.2,121.3z"/>
	<path class="st1" d="M216.2,121.3L216.2,121.3c0-3.8,2.8-7.1,7-7.1s7,3.3,7,7v0c0,3.8-2.8,7.1-7,7.1S216.2,125.1,216.2,121.3z
		 M228.5,121.3L228.5,121.3c0-3.1-2.3-5.7-5.4-5.7s-5.4,2.5-5.4,5.6v0c0,3.1,2.3,5.6,5.4,5.6S228.5,124.4,228.5,121.3z"/>
	<path class="st1" d="M235.3,114.4h1.6l5,7.5l5-7.5h1.6v13.7h-1.5V117l-5,7.3h-0.1l-5-7.3v11.1h-1.5V114.4z"/>
	<path class="st1" d="M253.8,126.1h1.8v2.1h-1.8V126.1z"/>
	<path class="st1" d="M260.4,122.4v-7.9h1.5v7.9c0,2.9,1.6,4.6,4.2,4.6c2.5,0,4.1-1.5,4.1-4.5v-7.9h1.5v7.8c0,4-2.3,6.1-5.7,6.1
		C262.7,128.3,260.4,126.3,260.4,122.4z"/>
	<path class="st1" d="M282,114.3h1.4l6.2,13.8H288l-1.6-3.6h-7.4l-1.6,3.6h-1.6L282,114.3z M285.8,123.1l-3.1-7l-3.1,7H285.8z"/>
</g>
<g>
	<g>
		<path class="st2" d="M320.3,70.7l-0.5,0.7c-0.4-0.2-0.8-0.6-1-1.1c-0.2-0.5-0.3-1-0.3-1.7c0-1,0.2-1.9,0.7-2.7
			c0.5-0.8,1.2-1.4,2.1-1.8c0.9-0.4,2-0.6,3.2-0.6h0c1.3,0,2.5,0.2,3.4,0.7c0.9,0.5,1.7,1.2,2.1,2.1c0.5,0.9,0.7,2,0.7,3.3
			c0,1.3-0.2,2.3-0.7,3.2c-0.5,0.9-1.2,1.6-2.2,2.1c-1,0.5-2.1,0.7-3.4,0.7h0c-0.7,0-1.4-0.1-2.2-0.3c-0.8-0.2-1.7-0.5-2.6-0.8
			c-0.1,0-0.3-0.1-0.4-0.1c-0.1-0.1-0.3-0.1-0.4-0.2l-8.8-3.7v-4.1L320.3,70.7z M322.8,71c0.4,0.4,1.1,0.6,1.9,0.6h0
			c0.8,0,1.4-0.2,1.8-0.6c0.4-0.4,0.6-0.9,0.6-1.6c0-0.7-0.2-1.2-0.6-1.6c-0.4-0.4-1-0.6-1.8-0.6h0c-0.8,0-1.4,0.2-1.8,0.6
			c-0.4,0.4-0.6,0.9-0.6,1.6C322.2,70.1,322.4,70.6,322.8,71z"/>
		<path class="st2" d="M310.1,87.2v-3.9h16l-0.9-2.5h4.1l1.4,3.1v3.3H310.1z"/>
		<path class="st2" d="M310.1,99.8v-3.9h16l-0.9-2.5h4.1l1.4,3.1v3.3H310.1z"/>
	</g>
</g>
</svg>
