<?xml version="1.0" encoding="utf-8"?>
<!-- Generator: Adobe Illustrator 24.0.2, SVG Export Plug-In . SVG Version: 6.00 Build 0)  -->
<svg version="1.1" xmlns="http://www.w3.org/2000/svg" xmlns:xlink="http://www.w3.org/1999/xlink" x="0px" y="0px"
	 viewBox="0 0 424.48 448.44" style="enable-background:new 0 0 424.48 448.44;" xml:space="preserve">
<style type="text/css">
	.st0{fill:none;}
	.st1{fill:#1A1A1A;}
	.st2{display:none;}
	.st3{display:inline;}
</style>
<g id="text">
	<g>
		<g>
			<g id="XMLID_54_">
				<path id="XMLID_77_" class="st0" d="M319.39,204.53l-45.56-70.3l20.49,76.09l23.43-5.41
					C318.3,204.76,318.85,204.64,319.39,204.53z"/>
				<path id="XMLID_76_" class="st0" d="M192.46,251.68c-1.61,0.43-2.95,1.46-3.78,2.9c-0.83,1.44-1.04,3.12-0.6,4.73l11.99,45.11
					l12.23-2.93l-12.3-45.5C199.14,252.77,195.75,250.8,192.46,251.68z"/>
				<path id="XMLID_75_" class="st0" d="M335.39,231.53c-0.69-2.71-2.4-4.97-4.81-6.39c-2.41-1.41-5.22-1.8-7.92-1.08l-0.31,0.08
					l-22.92,5.29l5.39,20.2l23.47-5.57C333.59,242.48,336.77,236.9,335.39,231.53z"/>
				<path id="XMLID_74_" class="st0" d="M122.68,234.62l-18.47,4.85l-20.79-34.51l11.85,46.46l32.35-7.02
					c3.52-0.88,7.09-1.13,10.59-0.77l-15.25-56.67L122.68,234.62z"/>
				<path id="XMLID_73_" class="st0" d="M137.99,284.4c5.41-1.56,8.7-7.23,7.35-12.72c-0.68-2.76-2.41-5.09-4.85-6.55
					c-2.45-1.46-5.31-1.87-8.07-1.17l-0.37,0.09l-31.79,6.9l5.4,20.84L137.99,284.4z"/>
				<path id="XMLID_72_" class="st0" d="M239.18,179.35l-21.05-77.52c-0.02-0.07-0.03-0.14-0.05-0.2c-0.38-1.61-1.37-2.98-2.78-3.85
					c-0.99-0.61-2.11-0.9-3.24-0.9c-0.43,0.03-0.87,0.1-1.3,0.21c-2.91,0.77-4.83,3.4-4.88,6.28c0.02,0.32,0.04,0.65,0.11,0.98
					l3.45,13.85l21.05,77.52c0.02,0.07,0.03,0.14,0.05,0.2c0.38,1.61,1.37,2.98,2.78,3.85c0.99,0.61,2.11,0.9,3.24,0.9
					c0.43-0.03,0.87-0.1,1.3-0.21c2.91-0.77,4.83-3.4,4.88-6.28c-0.02-0.32-0.04-0.65-0.11-0.98L239.18,179.35z"/>
				<path id="XMLID_71_" class="st0" d="M183.49,192.46l-21.05-77.52c-0.02-0.07-0.03-0.14-0.05-0.2c-0.38-1.61-1.37-2.98-2.78-3.85
					c-0.99-0.61-2.11-0.9-3.24-0.9c-0.43,0.03-0.87,0.1-1.3,0.21c-2.91,0.77-4.83,3.4-4.88,6.28c0.02,0.32,0.04,0.65,0.11,0.98
					l3.45,13.85l21.05,77.52c0.02,0.07,0.03,0.14,0.05,0.2c0.38,1.61,1.37,2.98,2.78,3.85c0.99,0.61,2.11,0.9,3.24,0.9
					c0.43-0.03,0.87-0.1,1.3-0.21c2.91-0.77,4.83-3.4,4.88-6.28c-0.02-0.32-0.04-0.65-0.11-0.98L183.49,192.46z"/>
				<g id="XMLID_55_">
					<path id="XMLID_68_" class="st1" d="M297.23,314.76l-20.45,4.82l3.62,13.45c0.67,2.49-1.41,5.46-3.4,5.99
						c-2.7,0.71-5.95-0.16-6.84-3.47l-24.56-91.39c-0.51-1.83,0.1-3.3,0.5-4.01c0.41-0.71,1.36-1.97,3.2-2.46
						c2.76-0.74,5.64,0.9,6.41,3.64l1.8,6.36l19.82-6l-1.78-6.3c-3.31-11.7-14.12-19.41-25.79-19.39
						c7.93-4.44,13.03-12.81,13.37-21.89c0.01-0.29,0.01-0.58,0.02-0.87c0-0.39,0.01-0.77-0.01-1.16c-0.05-2.03-0.31-4.07-0.85-6.11
						l-3.34-12.57l-20.24-75.03c-1.78-6.94-6.17-12.74-12.36-16.34c-0.08-0.05-0.17-0.09-0.26-0.14c-8.74-0.8-17.63-0.79-26.58,0.08
						c-7.7,4.5-12.64,12.73-12.97,21.67c-0.01,0.29-0.01,0.58-0.02,0.87c0,0.39-0.01,0.77,0.01,1.16c0.05,2.03,0.31,4.07,0.85,6.11
						l3.34,12.57l20.24,75.03c1.78,6.94,6.17,12.74,12.36,16.34c4.03,2.34,8.49,3.54,13.02,3.59c0.18,0,0.36,0.01,0.54,0.02
						c-4.28,2.31-7.89,5.72-10.38,10.05c-3.59,6.28-4.23,13.47-2.34,20.3l25.34,91.13c2.07,7.51,7.06,13.36,13.42,16.66
						c14.28-5.31,27.28-12.74,38.73-21.82c0.09-3.04-0.32-6.1-1.27-9.04L297.23,314.76z M236.56,200.67c-1.13,0-2.25-0.29-3.24-0.9
						c-1.41-0.87-2.4-2.24-2.78-3.85c-0.02-0.07-0.03-0.14-0.05-0.2l-21.05-77.52l-3.45-13.85c-0.07-0.33-0.09-0.65-0.11-0.98
						c0.05-2.88,1.97-5.51,4.88-6.28c0.43-0.11,0.86-0.18,1.3-0.21c1.13,0,2.25,0.29,3.24,0.9c1.41,0.87,2.4,2.24,2.78,3.85
						c0.02,0.07,0.03,0.14,0.05,0.2l21.05,77.52l3.45,13.85c0.07,0.33,0.09,0.65,0.11,0.98c-0.05,2.88-1.97,5.51-4.88,6.28
						C237.42,200.57,236.99,200.64,236.56,200.67z"/>
					<path id="XMLID_64_" class="st1" d="M333.46,263.15c10.9-3.05,18.79-11.91,21.22-22.33c0.33-2.78,0.59-5.57,0.75-8.38
						c-0.1-1.93-0.39-3.87-0.88-5.8c-0.07-0.29-0.16-0.58-0.24-0.87l0.01,0l-20.74-78.13c-8.07-12.76-18.04-23.99-29.41-33.41
						L318,166.75L271.6,93.9c-10.12-4.56-20.8-7.96-31.81-10.07l35.52,131.89l0,0l28.72,106.76c0.74,3.1,2.8,5.38,5.35,6.6
						c17.98-16.49,31.42-37.34,39.06-60.37l-12.72,3.05l-14.34,23.18c-1.35,1.77-4.15,1.22-4.72-0.93l-6.74-25.26l23.15-5.49
						L333.46,263.15z M273.83,134.22l45.56,70.3c-0.55,0.11-1.09,0.23-1.63,0.37l-23.43,5.41L273.83,134.22z M328.29,244.06
						l-23.47,5.57l-5.39-20.2l22.92-5.29l0.31-0.08c2.7-0.72,5.51-0.33,7.92,1.08c2.41,1.41,4.12,3.68,4.81,6.39
						C336.77,236.9,333.59,242.48,328.29,244.06z"/>
					<path id="XMLID_60_" class="st1" d="M193.63,229.36c8.19-4.37,13.48-12.89,13.82-22.15c0.01-0.29,0.01-0.58,0.02-0.87
						c0-0.39,0.01-0.77-0.01-1.16c-0.05-2.03-0.31-4.07-0.85-6.11l-3.34-12.57l-20.24-75.03c-1.78-6.94-6.17-12.74-12.36-16.34
						c-3.39-1.97-7.09-3.12-10.88-3.47c-9.16,3.68-17.78,8.24-25.76,13.55c-1.9,3.5-3.02,7.44-3.17,11.52
						c-0.01,0.29-0.01,0.58-0.02,0.87c0,0.39-0.01,0.77,0.01,1.16c0.05,2.03,0.31,4.07,0.85,6.11l3.34,12.57l20.24,75.03
						c1.78,6.94,6.17,12.74,12.36,16.34c4.03,2.34,8.49,3.54,13.02,3.59c0.22,0.01,0.44,0.02,0.66,0.02c0.11,0,0.22-0.01,0.33-0.01
						c-4.39,2.31-8.04,5.8-10.57,10.21c-3.54,6.17-4.45,13.35-2.58,20.12l27.3,102.7c6.83,0.84,13.76,1.18,20.76,1l-11.41-42.93
						l12.31-2.95l12.15,44.95c6.74-0.79,13.51-2.08,20.26-3.88l-30.32-112.69C216.36,237.05,205.45,229.2,193.63,229.36z
						 M180.87,213.77c-1.13,0-2.25-0.3-3.24-0.9c-1.41-0.87-2.4-2.24-2.78-3.85c-0.02-0.07-0.03-0.14-0.05-0.2l-21.05-77.52
						l-3.45-13.85c-0.07-0.33-0.09-0.65-0.11-0.98c0.05-2.88,1.97-5.51,4.88-6.28c0.43-0.11,0.86-0.18,1.3-0.21
						c1.13,0,2.25,0.29,3.24,0.9c1.41,0.87,2.4,2.24,2.78,3.85c0.02,0.07,0.03,0.14,0.05,0.2l21.05,77.52l3.45,13.85
						c0.07,0.33,0.09,0.65,0.11,0.98c-0.05,2.88-1.97,5.51-4.88,6.28C181.74,213.68,181.3,213.75,180.87,213.77z M200.07,304.42
						l-11.99-45.11c-0.44-1.61-0.23-3.29,0.6-4.73c0.83-1.44,2.17-2.47,3.78-2.9c3.29-0.87,6.68,1.1,7.54,4.31l12.3,45.5
						L200.07,304.42z"/>
					<path id="XMLID_56_" class="st1" d="M164.91,266.85c-0.09-0.37-0.2-0.74-0.3-1.11l0.01,0l-41.1-152.77
						c-5.87,4.74-11.32,9.92-16.31,15.47c-1.27,1.41-2.51,2.84-3.72,4.3l-0.37,64.95l-19.32-33.81
						c-11.34,24.4-15.86,52.1-11.84,80.11l1.07,4.55l7.18,26.96c4.79,12.38,11.18,23.77,18.86,34c0.96,1.28,1.95,2.55,2.96,3.8
						c3.98,4.94,8.26,9.59,12.82,13.92l-4.12-15.91l14.5-3.32l26.73,44.68c9.27,4.41,19.04,7.83,29.12,10.16l-35.7-59.67
						C160.01,297.95,168.69,282.16,164.91,266.85z M104.2,239.47l18.47-4.85l0.27-47.67l15.25,56.67c-3.5-0.36-7.08-0.11-10.59,0.77
						l-32.35,7.02l-11.85-46.46L104.2,239.47z M105.66,291.8l-5.4-20.84l31.79-6.9l0.37-0.09c2.75-0.7,5.62-0.29,8.07,1.17
						c2.44,1.46,4.17,3.79,4.85,6.55c1.36,5.49-1.93,11.16-7.35,12.72L105.66,291.8z"/>
				</g>
			</g>
		</g>
	</g>
</g>
<g id="ridera" class="st2">
	<g id="XMLID_1_" class="st3">
		<path id="XMLID_389_" class="st1" d="M63.41,227.63c0-86.54,69.16-156.7,155.7-156.7c8.45,0,16.75,0.68,24.84,1.97l0,0
			l-13.63-26.53l-2.16,9.51l-15.69-20.75l-0.54,24.86l-11.45-11.46L197.4,61.3l-24.77-31.83l4.12,34.91l-10.39-7.23l-1.55,11.24
			L144.2,46.26l2.18,27.28l-10.12-4.92l-0.39,11.27l-18.44-18.15l7,25.89l-36.44-29.4l16.64,40.94L91.43,96.5l6.26,14.25
			L62.41,92.07l22.93,33.41l-12.74-2.64l6.59,11.4l-24.61-6.59l14.62,18.46l-9.68,2.2l4.21,7.43l-28.77,0.88l23.67,21.33
			l-10.64,3.31l7.64,8.89l-31.67,5.8l30.18,17.08l-6.79,5.16l7.12,5.59l-17.27,7.76l18.7,8.79l-6.94,6.96l7.23,6.54l-19.56,11.46
			l25.78,6.91l-6.95,8.6c0,0,8.78,5.7,12.12,6.55c0,0,0,0,0,0c8.23,10.84,17.1,19.56,23.11,23.02
			C81.13,299.04,63.41,264.04,63.41,227.63z"/>
		<g id="XMLID_373_">
			<g id="XMLID_386_">
				<path id="XMLID_388_" class="st1" d="M315.65,56.67l1.77,1.14c0.4,0.26,0.91,0.3,1.35,0.11l1.31-0.58
					c0.73-0.32,1.05-1.17,0.73-1.89v0c-0.3-0.66-0.05-1.43,0.57-1.81c0.83-0.51,1.94-1.33,2.67-2.39c0.4-0.59,1.2-0.76,1.83-0.42
					c1.7,0.92,3.31,1.7,4.73,2.19c0.26-0.33,0.62-6.38,0-8.86c-0.58-2.31-5.49-7.68-9.1-9.31c-0.44-0.2-0.93-0.18-1.35,0.06
					l-5.75,3.39c-0.63,0.37-1.44,0.21-1.87-0.38c-2.45-3.36-11.29-13.72-28.73-16.07c-20.9-2.81-11.47,19.79-10.43,22.56
					c0.65,1.74,2.19,5.03,3.26,7.25c0.46,0.97-0.25,2.07-1.32,2.05c-2.04-0.05-5.15,0.17-8.47,1.47
					c-5.75,2.26-12.54,4.05-12.54,4.05s-1.16-0.11-1.48,0.04c-1.08,0.51-2.75,1.43-2.75,1.43c-0.62,0.48-0.73,1.36-0.27,1.99
					c1.55,2.08,5.01,6.44,8.02,8.32c4.03,2.52,5.04,1.95,5.04,1.95s0.31-1.12,0.17-1.47c-0.59-1.55-3.34-2.93-3.66-5.53
					c-0.31-2.6-0.41-3.02,1.71-3.39c1.89-0.33,4.15-0.77,6.7-0.8c2.69-0.03,9.48,0.14,13.18-0.24c3.98-0.41,5.42-2.1,6.03-4.03
					c0.61-1.93-0.75-7.59-0.75-7.59s1.8,0.14,2.53,2.34c0.73,2.2-2.15,6.23-3.69,7.48c-1.42,1.15-8.48,8.76-9.56,9.93
					c-0.09,0.1-0.2,0.19-0.32,0.26l-1.04,0.61c-0.2,0.12-0.38,0.29-0.51,0.49l-2.53,3.97c-0.41,0.67-0.22,1.54,0.44,1.96
					c2.12,1.36,6.07,2.76,9.63,4.63c4.81,2.53,5.7,2.45,5.7,2.45s0.31-0.73,0.42-0.97c0.41-0.98-0.39-1.91-1.49-2.82
					c-1.9-1.56-5.22-4.9-5.46-6.29c-0.38-2.09,0.24-1.99,1.57-3.05c0.65-0.52,4.64-3.6,8.63-6.8c4.19-3.37,7.89-5.65,8.7-7.7
					c0.51-1.29,0.49-3.04-1.08-6.1c-0.52-1,0.3-2.18,1.42-2.06c2.03,0.21,4.74,0.35,6.61-0.07c0.52-0.12,1.05,0.07,1.39,0.47
					l2.4,2.86c0.32,0.38,0.82,0.57,1.32,0.49l0.18-0.03c0.52-0.08,3.15,1.74,3.15,1.74l0.34,1.99
					C315.08,56.1,315.31,56.45,315.65,56.67z"/>
				<path id="XMLID_387_" class="st1" d="M275.74,22.42l-0.73-0.61c-1.98-1.67-5-1.02-6.13,1.31v0c-0.76,1.57-0.4,3.46,0.88,4.65
					l1.85,1.7L275.74,22.42z"/>
			</g>
			<g id="XMLID_384_">
				<path id="XMLID_385_" class="st1" d="M289.77,91.2c-7.48-4.36-32.88-18.22-56.14-19.9c-1.4-0.1-2.45-1.31-2.4-2.71v0
					c0.05-1.51,1.35-2.65,2.86-2.54c24.63,1.79,50.54,15.99,58.36,20.59c1.28,0.76,1.68,2.42,0.89,3.68v0
					C292.57,91.52,291,91.91,289.77,91.2z"/>
			</g>
			<circle id="XMLID_382_" class="st1" cx="241.01" cy="72.15" r="3.53"/>
			<circle id="XMLID_376_" class="st1" cx="283.38" cy="87.61" r="3.53"/>
		</g>
	</g>
</g>
</svg>
